<?xml version="1.0" encoding="utf-8"?>
<!-- Generator: Adobe Illustrator 25.1.0, SVG Export Plug-In . SVG Version: 6.00 Build 0)  -->
<svg version="1.1" id="Layer_1" xmlns="http://www.w3.org/2000/svg" xmlns:xlink="http://www.w3.org/1999/xlink" x="0px" y="0px"
	 viewBox="0 0 227 221" style="enable-background:new 0 0 227 221;" xml:space="preserve">
<style type="text/css">
	.st0{fill:#010101;}
	.st1{fill:#D7D6D5;}
	.st2{fill:#9C9999;}
	.st3{fill:#CDBFDD;}
	.st4{fill:#BBB4D5;}
	.st5{fill:#C2CFE1;}
	.st6{fill:#AFC0D8;}
	.st7{fill:#B8BBD7;}
	.st8{fill:#8DACCC;}
	.st9{fill:#B4BDD8;}
	.st10{fill:#C9C1DC;}
	.st11{fill:#90ACCB;}
	.st12{fill:#A89FC9;}
	.st13{fill:#8AAFCC;}
	.st14{fill:#B9B6D6;}
	.st15{fill:#A1A2CA;}
	.st16{fill:#BABAD7;}
	.st17{fill:#AAC2D8;}
	.st18{fill:#B5B8D6;}
	.st19{fill:#93C8D8;}
	.st20{fill:#B2BED8;}
	.st21{fill:#9CC4D8;}
	.st22{fill:#A6A0C9;}
	.st23{fill:#A1B2D2;}
	.st24{fill:#ADBBD6;}
	.st25{fill:#9AA5CB;}
	.st26{fill:#B9A8D2;}
	.st27{fill:#9EA4CA;}
	.st28{fill:#97C6D9;}
	.st29{fill:#8CCBD8;}
	.st30{fill:#B7B8D6;}
	.st31{fill:#B0ADD0;}
	.st32{fill:#A6BED7;}
	.st33{fill:#A0C2D8;}
	.st34{fill:#AF9BC8;}
	.st35{fill:#9DA5CB;}
	.st36{fill:#AED8E3;}
	.st37{fill:#90C9D8;}
	.st38{fill:#B1B9D6;}
	.st39{fill:#A5C5DA;}
	.st40{fill:#ABBCD6;}
	.st41{fill:#96A8CC;}
	.st42{fill:#BEB9D8;}
	.st43{fill:#A1C7DA;}
	.st44{fill:#B0D7E4;}
	.st45{fill:#BEB3D4;}
	.st46{fill:#BED0E2;}
	.st47{fill:#97A9CC;}
	.st48{fill:#AFBAD6;}
	.st49{fill:#ACDAE3;}
	.st50{fill:#A7C3D9;}
	.st51{fill:#CBC0DC;}
	.st52{fill:#BFD0E1;}
	.st53{fill:#A0A0C8;}
	.st54{fill:#AB9CC7;}
	.st55{fill:#BAD4E3;}
	.st56{fill:#88B0CC;}
	.st57{fill:#A3C0D7;}
	.st58{fill:#B1D7E4;}
	.st59{fill:#9EB4D1;}
	.st60{fill:#98B8D3;}
	.st61{fill:#BCD1E2;}
	.st62{fill:#84B0CC;}
	.st63{fill:#9CC9DB;}
	.st64{fill:#94BAD4;}
	.st65{fill:#A79DC8;}
	.st66{fill:#CFC8E0;}
	.st67{fill:#BBB9D7;}
	.st68{fill:#B5D5E3;}
	.st69{fill:#91A8CA;}
	.st70{fill:#8DA9CA;}
	.st71{fill:#AE9AC6;}
	.st72{fill:#9BB7D3;}
	.st73{fill:#8AABCB;}
	.st74{fill:#C7C1DC;}
	.st75{fill:#BBD2E3;}
	.st76{fill:#95A5C9;}
	.st77{fill:#82B1CC;}
	.st78{fill:#88ADCC;}
	.st79{fill:#BBA8D1;}
	.st80{fill:#85AFCC;}
	.st81{fill:#7EB2CC;}
	.st82{fill:#78B5CD;}
	.st83{fill:#A49FC8;}
	.st84{fill:#9AB9D3;}
	.st85{fill:#AECADB;}
	.st86{fill:#97BDD3;}
	.st87{fill:#A8B6D3;}
	.st88{fill:#8CCBD9;}
	.st89{fill:#696F84;}
	.st90{fill:#A7A9CB;}
	.st91{fill:#CCC9E0;}
	.st92{fill:#C5CCE0;}
	.st93{fill:#AABDD6;}
	.st94{fill:#C3CFE1;}
	.st95{fill:#9EA2CA;}
	.st96{fill:#9AA3CA;}
	.st97{fill:#9AA7CC;}
	.st98{fill:#B4ABD0;}
	.st99{fill:#B7AAD0;}
	.st100{fill:#AC9DC9;}
	.st101{fill:#C3C2DC;}
	.st102{fill:#C8CBE0;}
	.st103{fill:#B3AED2;}
	.st104{fill:#B0B0D3;}
	.st105{fill:#9FB2D1;}
	.st106{fill:#A4BFD7;}
	.st107{fill:#AE9CC8;}
	.st108{fill:#B2D7E4;}
	.st109{fill:#B5D6E3;}
	.st110{fill:#B8D4E3;}
	.st111{fill:#A7BED7;}
	.st112{fill:#ADB1D2;}
</style>
<path class="st0" d="M4.94,108.32c0-0.72,0-1.44,0-2.16c0.31-1.21,0.18-2.45,0.2-3.67c0.12-5.42,1.08-10.71,2.27-15.97
	c1.77-7.83,4.49-15.33,8.06-22.49c4.52-9.05,10.22-17.28,17.1-24.73c9.57-10.37,20.76-18.52,33.48-24.56
	C76.33,9.85,87.13,6.7,98.42,5.16c4.52-0.62,9.05-0.75,13.6-0.74c1.07,0,2.14,0,3.21,0c15.37-0.28,29.94,3.23,43.91,9.41
	c10.22,4.52,19.5,10.55,27.85,18.01c8.86,7.92,16.31,16.97,22.14,27.34c6.61,11.77,10.82,24.35,12.5,37.74
	c0.78,6.19,0.59,12.42,0.49,18.64c-0.12,6.84-1.25,13.51-2.94,20.09c-3.92,15.21-11.02,28.81-21.08,40.87
	c-8.35,10.01-18.22,18.21-29.54,24.66c-12.29,7.01-25.45,11.45-39.46,13.41c-4.31,0.6-8.64,0.91-13,0.86
	c-4.06-0.05-8.14,0.13-12.19-0.2c-4.9-0.4-9.75-1.15-14.55-2.22c-8.89-1.98-17.44-4.97-25.57-9.06c-8.1-4.07-15.57-9.08-22.45-15
	c-7.41-6.37-13.81-13.63-19.22-21.74c-8.85-13.28-14.32-27.86-16.5-43.67c-0.4-2.89-0.48-5.8-0.56-8.71
	c-0.01-0.43,0.13-0.88-0.12-1.28c0-0.64,0-1.28,0-1.92C5.14,110.56,5.14,109.44,4.94,108.32z"/>
<path class="st1" d="M111.83,4.5c0-0.07,0.01-0.13,0.01-0.2c1.2,0,2.4,0,3.6,0c0,0.07,0,0.13,0.01,0.2
	C114.24,4.5,113.03,4.5,111.83,4.5z"/>
<path class="st2" d="M4.94,108.32c0.39,1.12,0.4,2.24,0,3.36C4.94,110.56,4.94,109.44,4.94,108.32z"/>
<path class="st3" d="M75.65,76.72c-1.52,0.11-3.03,0.14-4.54-0.03c-1.96-0.93-3.62-2.31-5.37-3.55c-0.96-0.68-2.17-1.07-2.77-2.21
	c-0.02-5.38-0.03-10.76-0.06-16.15c0-0.51,0.13-0.7,0.67-0.69c4.19,0.04,8.37,0.05,12.56,0.07c0.25,0.94,0.54,1.86,0.23,2.87
	c-0.23,0.76-0.21,1.62-0.06,2.35c0.45,2.15-0.35,4.29,0.17,6.47c0.18,0.77-0.34,1.89-0.17,2.77c0.44,2.23-0.47,4.49,0.22,6.69
	C76.76,76.06,76.02,76.29,75.65,76.72z"/>
<path class="st4" d="M198.1,128.45c-0.14,1.06-0.64,1.98-1.11,2.91c-0.63,0.1-0.77-0.45-1.02-0.8c-1.36-1.94-2.68-3.9-4.06-5.83
	c-0.4-0.74-1.11-1.32-1.17-2.25c0.11-3.03,0.01-6.05,0.03-9.08c0.01-2.15-0.01-4.3,0.03-6.45c0.06-2.99-0.1-5.98-0.07-8.96
	c0.02-2.07,0.08-4.14,0.06-6.21c-0.03-2.23,0.12-4.46-0.02-6.69c-0.04-0.63,0.05-1.22,0.89-1.24c2.78,3.66,4.96,7.63,6.43,11.99
	c-0.69,0.69-0.92,1.38-0.4,2.34c0.47,0.86,0.46,1.84-0.05,2.76c-0.29,0.52-0.29,0.96,0.06,1.54c0.58,0.97,0.46,2.06,0,3.08
	c-0.3,0.66-0.32,1.15,0.08,1.86c0.47,0.85,0.38,1.92-0.05,2.86c-0.31,0.68-0.39,1.2,0.07,1.96c0.46,0.77,0.37,1.84-0.04,2.75
	c-0.32,0.72-0.42,1.27,0.05,2.09c0.47,0.81,0.35,1.93-0.11,2.87c-0.32,0.65-0.31,1.15,0.08,1.86c0.47,0.85,0.38,1.93-0.06,2.87
	c-0.32,0.69-0.52,1.29,0.12,1.95C198.34,127.13,197.62,127.89,198.1,128.45z"/>
<path class="st5" d="M164.57,128.7c3.04-3.53,5.18-7.5,6.01-12.12c1.19-6.54-0.07-12.57-3.8-18.07c-0.11-0.16-0.2-0.34-0.3-0.51
	c-0.25-0.71,0.06-1.4,0.06-2.11c0-0.28,0.1-0.6-0.19-0.76c-0.25-0.14-0.43,0.09-0.61,0.24c-0.25,0.2-0.51,0.47-0.84,0.29
	c-0.39-0.2-0.29-0.61-0.26-0.97c0.06-0.75,0.27-1.35,1.05-1.71c0.89-0.41,1-1.27,0.91-2.15c-0.03-0.33-0.14-0.68-0.59-0.48
	c-0.42,0.18-0.88,0.68-1.14-0.09c-0.24-0.69-0.3-1.45,0.52-1.87c0.45-0.23,0.91-0.51,1.47-0.39c1.37,1.13,2.16,2.71,3.2,4.1
	c0.88,1.41,2.09,2.62,2.66,4.23c-0.66,2.05-0.31,4.13-0.17,6.21c0.08,1.22-0.19,2.44-0.14,3.67c0.13,3.22,0.01,6.44,0.03,9.66
	c0.02,3.22-0.07,6.45,0,9.67c0.07,3.12-0.21,6.22-0.04,9.34c0.17,3.18,0.07,6.36,0.01,9.54c-0.01,0.82,0.2,1.61,0.09,2.46
	c-0.09,0.65-0.16,1.25-0.57,1.77c-0.29,0.32-0.64,0.53-1.06,0.62c-0.12,0.02-0.24,0.01-0.36-0.01c-1.55-0.85-2.93-1.96-4.37-2.98
	c-0.23-0.16-0.4-0.38-0.43-0.68c0.19-0.68,0.77-1.22,0.68-2.01c-0.06-0.47-0.11-0.82-0.7-0.41c-0.77,0.53-1.1,0.11-1.16-0.64
	c-0.08-1.01-0.16-1.94,1.19-2.36c0.85-0.27,0.74-1.18,0.55-1.93c-0.39-0.14-0.55,0.18-0.79,0.28c-0.28,0.11-0.53,0.16-0.75-0.11
	c-0.55-0.64-0.18-2.47,0.57-2.83c1.11-0.53,1.27-0.91,0.93-2.29c-0.5,0.01-0.82,0.83-1.36,0.42c-0.55-0.41-0.35-1.1-0.33-1.68
	c0.01-0.56,0.28-0.95,0.81-1.21c1.09-0.53,1.1-0.61,0.87-1.98c-0.58-0.06-0.87,0.95-1.55,0.46
	C164.43,129.16,164.37,128.93,164.57,128.7z"/>
<path class="st6" d="M111.36,54.16c2.16,0,4.31,0,6.47,0c0.4,0.44,0.25,0.92,0.03,1.34c-0.57,1.12-0.48,2.22-0.05,3.34
	c0.21,0.55,0.26,1.1-0.01,1.62c-0.54,1.04-0.4,2.07-0.01,3.11c0.2,0.54,0.3,1.09,0.03,1.62c-0.54,1.08-0.43,2.15-0.02,3.23
	c0.21,0.55,0.27,1.1,0,1.62c-0.53,1.04-0.41,2.08-0.01,3.11c0.22,0.59,0.28,1.17-0.01,1.74c-0.51,1.01-0.38,2-0.01,3
	c0.23,0.63,0.29,1.24-0.01,1.85c-0.46,0.92-0.42,1.84-0.04,2.76c0.32,0.78,0.3,1.55-0.04,2.31c-0.31,0.69-0.35,1.38,0,2.07
	c0.4,0.78,0.33,1.62,0.27,2.45c-0.07,1.03-0.91,1.62-1.42,2.41c-0.36,0.57-0.85,1.04-1.22,1.6c-0.93,1.18-1.79,2.41-2.73,3.58
	c-0.34,0.42-0.72,1.11-1.39,0.32c-0.3-0.6-0.26-1.25-0.26-1.88c0-13.09-0.01-26.18,0-39.27C110.96,55.44,110.85,54.73,111.36,54.16z
	"/>
<path class="st7" d="M99.62,54.16c1.44,0,2.88,0,4.31,0c0.27,0.14,0.4,0.35,0.37,0.68c-0.17,2.14-0.09,4.28-0.09,6.42
	c0,3.29-0.03,6.58-0.02,9.87c0.01,3.09-0.05,6.18,0.03,9.27c0.06,2.18,0.02,4.36,0.06,6.54c0.05,2.57-0.12,5.15-0.06,7.72
	c0.03,1.51,0.03,3-0.19,4.49c-0.84,0.38-1.25-0.41-1.86-0.67c-0.99-0.63-1.88-1.42-2.91-1.99c-0.35-0.22-0.7-0.43-0.74-0.91
	c0.39-0.65,0.76-1.31,0.09-2.01c-0.08-0.08-0.15-0.28-0.1-0.33c0.97-0.93-0.14-2.1,0.38-3.07c0.19-0.36,0.12-0.69-0.03-1.03
	c-0.17-0.39-0.21-0.77,0.1-1.12c0.08-0.09,0.21-0.25,0.17-0.3c-0.84-1.03,0.22-2.31-0.45-3.36c-0.18-0.28-0.35-0.68-0.09-0.89
	c0.69-0.55,0.19-1.1,0.18-1.69c-0.01-0.95,0.31-1.91-0.28-2.81c1.05-0.92-0.25-2.19,0.46-3.18c0.14-0.2,0.04-0.47-0.09-0.68
	c-0.37-0.58-0.6-1.13,0.08-1.68c0.21-0.17,0.14-0.45,0.02-0.66c-0.33-0.57-0.34-1.12-0.01-1.7c0.18-0.31,0.02-0.62-0.15-0.9
	c-0.33-0.52-0.49-1.02,0.1-1.47c0.06-0.05,0.15-0.15,0.13-0.19c-0.76-1.03,0.36-2.23-0.3-3.26c-0.15-0.24-0.37-0.58-0.2-0.77
	c0.61-0.67,0.22-1.34,0.24-2.05c0.02-0.9,0.24-1.75-0.26-2.59c-0.09-0.16,0.04-0.38,0.18-0.54c0.13-0.14,0.4-0.31,0.33-0.46
	c-0.42-0.92,0.07-1.91-0.14-2.73C98.62,55.14,98.97,54.68,99.62,54.16z"/>
<path class="st8" d="M52.12,131.71c0.7-1.78,1.52-3.5,2.43-5.18c0.67,0.17,1,0.82,1.6,1.1c0.61,0.47,1.24,0.93,1.81,1.45
	c0.29,0.26,0.63,0.49,0.44,0.97c-0.19,0.36-0.31,0.73-0.29,1.14c0.17,4.06,0.07,8.12,0.05,12.17c-0.01,3.86,0.1,7.72,0,11.58
	c-0.1,3.69-0.07,7.39-0.02,11.08c-1.2,0-2.4,0.01-3.6,0.01c-0.99-0.34-1.9-0.78-2.4-1.77c-0.25-2.69-0.08-5.39-0.12-8.08
	c-0.04-2.66,0.02-5.33-0.02-7.99c-0.03-2.02,0.02-4.04,0-6.06c-0.02-1.94-0.02-3.88-0.01-5.82C52,134.8,51.81,133.25,52.12,131.71z"
	/>
<path class="st9" d="M103.93,99.22c-0.13-1.05,0.16-2.12,0.08-3.11c-0.1-1.2-0.14-2.39-0.1-3.58c0.07-1.93,0.15-3.89,0.06-5.8
	c-0.11-2.38-0.09-4.76-0.07-7.13c0.02-2.33-0.21-4.67,0.08-7.02c0.15-1.17-0.2-2.44-0.07-3.68c0.22-2.02,0.1-4.09,0.04-6.08
	c-0.07-2.41,0.3-4.84-0.17-7.23c-0.1-0.52,0.69-0.9,0.14-1.42c1.44,0,2.88,0,4.31,0c0.49,0.66,0.48,1.43,0.44,2.18
	c-0.12,2.94,0.01,5.89-0.04,8.83c-0.05,2.66,0,5.33-0.02,7.99c-0.02,3.34-0.12,6.68,0.01,10.02c0.14,3.66-0.06,7.32,0.02,10.98
	c0.05,2.49,0.12,5.01-0.04,7.51c0.01,0.21-0.05,0.38-0.22,0.51c-0.11,0.06-0.23,0.09-0.36,0.1c-1.53-0.58-2.75-1.65-4.03-2.63
	C103.87,99.55,103.87,99.38,103.93,99.22z"/>
<path class="st10" d="M79.96,54.16c1.84-0.1,3.67-0.1,5.51,0c0.42,0.21,0.66,0.56,0.8,0.99c0.93,2.87,2.04,5.68,3.07,8.52
	c0.11,0.3,0.19,0.61,0.14,0.93c-0.03,1.45-0.34,2.88-0.24,4.34c0.08,1.26,0.2,2.51,0,3.78c-0.12,0.75-0.09,1.53,0.11,2.25
	c0.24,0.86-0.02,1.38-0.77,1.74c-3.27,0.12-6.55,0.13-9.82,0c-0.21-0.23-0.14-0.46,0.06-0.63c0.42-0.36,0.42-0.72,0.12-1.14
	c-0.35-0.51-0.47-1.02,0.08-1.48c0.06-0.05,0.15-0.15,0.13-0.19c-0.52-1.02-0.01-2.13-0.26-3.15c-0.13-0.51-0.43-0.95,0.08-1.4
	c0.33-0.29,0.29-0.64,0.08-0.97c-0.34-0.55-0.02-1.11-0.05-1.59c-0.07-1.03-0.16-1.99,0.06-3.05c0.11-0.51-0.1-1.16-0.06-1.8
	c0.05-0.95-0.14-1.89,0.09-2.92c0.12-0.54-0.65-1.25,0.05-1.91c0.11-0.11,0.04-0.32-0.06-0.44c-0.9-1.05-0.16-1.42,0.71-1.73
	C79.85,54.29,79.91,54.22,79.96,54.16z"/>
<path class="st11" d="M52.12,131.71c0.29,1.07,0.22,2.17,0.26,3.25c0.06,1.32,0.09,2.65-0.01,3.96c-0.16,2.15,0,4.3-0.08,6.45
	c-0.06,1.71,0.07,3.45,0.01,5.17c-0.05,1.45-0.13,2.95,0,4.34c0.18,1.94-0.1,3.88,0.11,5.83c0.12,1.13,0.2,2.46-0.02,3.69
	c-0.6,0.17-0.97-0.28-1.38-0.56c-2.99-1.99-5.8-4.25-8.83-6.17c-0.5-0.53-1.29-0.76-1.62-1.48c2.23-4.78,4.44-9.56,6.69-14.33
	C48.85,138.48,50.5,135.1,52.12,131.71z"/>
<path class="st12" d="M60.15,99.9c1.06,1.31,2.21,2.52,3.54,3.55c0.66,0.76,1.6,1.44,0.8,2.66c-0.15,0.24,0.06,0.54,0.17,0.79
	c0.18,0.39,0.23,0.79-0.05,1.13c-0.4,0.48-0.41,0.91,0.01,1.38c0.1,0.11,0.09-0.03,0.06,0.09c-0.36,1.15,0.35,2.36-0.18,3.49
	c-0.08,0.18-0.32,0.42-0.21,0.52c0.91,0.88,0.1,2.09,0.62,3.03c0.08,0.14,0.2,0.35,0.12,0.45c-0.72,0.89-0.04,1.99-0.45,2.91
	c-0.16,0.36-0.16,0.69,0.02,1.03c0.28,0.51,0.28,0.99-0.12,1.44c-0.34,0.38-0.22,0.7,0.05,1.06c0.47,0.64,0.34,1.19-0.35,1.59
	c-0.39,0.09-0.69-0.11-0.99-0.32c-2.21-1.57-4.48-3.05-6.66-4.66c-0.21-0.22-0.42-0.44-0.42-0.78c0.24-1.54,0.39-3.06,0.1-4.62
	c-0.17-0.89,0.05-1.81,0.04-2.73c-0.03-3.45-0.07-6.9,0.02-10.35c0.02-0.81-0.33-0.96-1.03-1.09c-1.78-0.33-3.59-0.02-5.36-0.37
	c-1.06-1.12-1.1-1.73-0.09-2.65c0.39-0.35,0.48-0.69,0.31-1.15c-0.2-0.56-0.51-0.98-1.17-1.02c-1.03-0.06-2.06,0.05-3.09-0.07
	c-0.35-0.04-1.04,0.09-0.75-0.71c1.3-0.42,2.64-0.18,3.96-0.2c2.35-0.06,4.71-0.08,7.06,0.01c0.37,0.02,0.74,0.02,1.04,0.28
	c0.1,0.61-0.44,0.54-0.76,0.67c-0.25,0.11-0.59,0.13-0.65,0.44c-0.19,1.13-0.23,2.29,0.01,3.41c0.12,0.53,0.7,0.4,1.12,0.44
	C57.98,99.66,59.12,99.3,60.15,99.9z"/>
<path class="st13" d="M58.14,166.03c-0.85-1.53-0.12-3.17-0.32-4.76c-0.27-2.05,0.16-4.11-0.05-6.19c-0.15-1.48,0.12-3,0.14-4.5
	c0.04-2.94-0.07-5.88-0.07-8.82c0-2.1,0.12-4.2-0.03-6.31c-0.1-1.47,0.13-2.95-0.06-4.44c-0.05-0.42-0.21-1.12,0.64-1.13
	c0.46-0.17,0.77,0.14,1.06,0.38c1.65,1.37,3.42,2.59,5.03,4.02c0.15,0.18,0.25,0.38,0.29,0.61c0.02,0.46,0.29,0.82,0.47,1.21
	c0.12,0.25,0.3,0.65,0.02,0.76c-1.03,0.42-0.38,0.98-0.21,1.52c0.1,0.3,0.21,0.64,0,0.92c-0.38,0.52-0.17,0.96,0.1,1.43
	c0.25,0.44,0.43,0.89-0.24,1.17c-0.15,0.06-0.34,0.25-0.24,0.35c1,1.03-0.32,2.42,0.56,3.46c0.14,0.17,0.26,0.56,0.07,0.66
	c-0.93,0.45-0.51,1.05-0.24,1.64c0.05,0.11,0.12,0.27,0.07,0.34c-0.65,0.93,0.12,1.75,0.2,2.62c-2.13,4.55-4.26,9.11-6.4,13.66
	C58.72,165.13,58.61,165.69,58.14,166.03z"/>
<path class="st14" d="M191.67,83.87c-0.57,0.37-0.88,0.84-0.47,1.49c0.28,0.45-0.01,0.85-0.03,1.27c-0.12,2.59-0.05,5.19-0.08,7.77
	c-0.03,2.68-0.04,5.37,0.04,8.06c0.06,2.02-0.06,4.08-0.04,6.09c0.04,2.81,0.04,5.62,0.07,8.43c0.02,1.44,0,2.88,0,4.32
	c0,0.48,0.03,0.96-0.24,1.39c-0.41,0.11-0.57-0.22-0.74-0.47c-1.38-1.98-2.75-3.98-4.14-5.95c-0.21-0.29-0.38-0.61-0.3-0.99
	c0.39-0.71,0.33-1.47,0.39-2.26c0.15-1.97-0.42-3.97,0.19-5.91c0.05-0.15,0.09,0,0.01-0.11c-0.67-0.99-0.14-2.02-0.17-3.03
	c-0.01-0.47-0.14-0.93,0.07-1.39c0.07-0.14,0.17-0.36,0.1-0.45c-0.72-0.9-0.13-1.88-0.23-2.81c-0.05-0.49-0.07-0.94,0.13-1.4
	c0.13-0.31,0.2-0.64-0.06-0.9c-0.46-0.46-0.11-0.93-0.12-1.41c-0.03-1.24,0.63-2.52-0.13-3.74c-0.06-0.1-0.14-0.25-0.08-0.34
	c0.71-1-0.04-2.2,0.44-3.23c0.03-0.07,0.08-0.18,0.05-0.23c-0.62-0.99-0.17-2.01-0.17-3.03c0-0.51-0.12-1.01,0.11-1.5
	c0.03-0.07,0.09-0.18,0.05-0.23c-0.66-1.02-0.03-2.11-0.18-3.13c-0.14-0.96,0.11-1.54,0.96-1.91
	C188.81,80.01,190.38,81.83,191.67,83.87z"/>
<path class="st15" d="M70.61,105.94c0.32,0.01,0.65,0.02,0.97,0.03c1.87,0.16,3.74,0.07,5.61,0.05c0.86-0.01,1.15,0.3,1.1,1.11
	c-0.13,2.22-0.04,4.45-0.04,6.67c0.01,2.66,0.03,5.32,0.01,7.98c-0.01,0.95-0.05,1.9,0.11,2.85c0.07,0.45,0.23,0.95-0.1,1.39
	c-0.86-0.12-1.24,0.34-1.56,1.08c-0.73,1.67-1.56,3.3-2.35,4.95c-0.26,0.22-0.54,0.13-0.78-0.01c-1.13-0.67-2.18-1.47-3.23-2.25
	c-0.27-0.2-0.39-0.5-0.26-0.85c0.37-2.82,0.08-5.65,0.17-8.48c0.13-4.06-0.05-8.12,0-12.18C70.27,107.49,70.23,106.68,70.61,105.94z
	"/>
<path class="st16" d="M99.62,54.16c-0.46,0.82-0.73,1.65-0.15,2.53c-0.93,0.69-0.39,1.35,0.02,2.03c0.13,0.21,0.17,0.56-0.1,0.62
	c-1.07,0.24-0.67,0.66-0.25,1.21c0.3,0.39,0.58,0.86-0.02,1.34c-0.46,0.37-0.11,0.76,0.1,1.15c0.24,0.43,0.82,0.98-0.23,1.23
	c-0.47,0.11-0.34,0.48-0.11,0.75c0.48,0.57,0.93,1.07,0.14,1.8c-0.38,0.36,0.12,0.78,0.31,1.16c0.21,0.41,0.58,0.85-0.27,1.07
	c-0.67,0.17-0.31,0.58-0.06,0.9c0.41,0.52,0.76,0.99,0.05,1.61c-0.41,0.36,0.03,0.79,0.25,1.16c0.25,0.44,0.63,0.95-0.3,1.13
	c-0.38,0.07-0.39,0.41-0.19,0.65c0.55,0.64,0.97,1.21,0.16,2.01c-0.3,0.3,0.18,0.71,0.36,1.05c0.2,0.4,0.59,0.85-0.27,1.07
	c-0.67,0.17-0.32,0.58-0.07,0.9c0.41,0.52,0.77,0.98,0.06,1.61c-0.41,0.36,0.03,0.79,0.24,1.16c0.25,0.44,0.64,0.91-0.29,1.14
	c-0.54,0.13-0.3,0.54-0.05,0.83c0.47,0.55,0.79,1.04,0.07,1.71c-0.38,0.36,0.07,0.78,0.34,1.13c0.28,0.36,0.71,0.8-0.11,1.08
	c-0.15,0.05-0.38,0.23-0.3,0.3c1.13,1-0.61,2.37,0.44,3.37c0.18,0.17,0.35,0.64,0.04,0.73c-1.25,0.35-0.61,0.85-0.19,1.39
	c0.66,0.84-0.24,1.14-0.59,1.62c-1.5-0.19-2.01-0.76-2.04-2.19c-0.03-1.66,0.1-3.33-0.07-4.99c-0.01-3.45-0.08-6.9-0.01-10.34
	c0.02-1.12-0.31-1.48-1.37-1.33c-0.42,0.06-0.87-0.03-1.3-0.05c-0.32-0.22-0.53-0.51-0.5-0.92c0.03-3.55-0.01-7.1,0.02-10.64
	c0.03-3.07-0.2-6.14,0.15-9.2c0.07-0.6-0.37-1.3,0.32-1.78C95.78,54.16,97.7,54.16,99.62,54.16z"/>
<path class="st17" d="M117.83,89.39c-0.04-1.31-1.02-2.67-0.71-3.74c0.43-1.54,0.65-2.84-0.13-4.24c-0.13-0.23-0.09-0.46,0.06-0.67
	c0.75-1.1,0.78-2.33,0.25-3.46c-0.36-0.75-0.36-1.31,0.05-1.95c0.63-0.99,0.27-2.03-0.08-2.94c-0.26-0.67-0.33-1.12,0.04-1.73
	c0.57-0.95,0.45-2.03-0.01-2.93c-0.4-0.79-0.33-1.43,0.07-2.07c0.6-0.94,0.27-1.89-0.07-2.71c-0.33-0.78-0.33-1.4,0.06-2.07
	c0.51-0.87,0.39-1.8-0.03-2.58c-0.61-1.12-0.06-2.02,0.3-2.98c0.15-0.39,0.23-0.76,0.21-1.16c1.6,0,3.2,0,4.79,0
	c0.11,0.11,0.3,0.21,0.31,0.35c0.08,1.56,0.38,3.12,0.32,4.67c-0.05,1.26-0.43,2.48,0.05,3.76c0.33,0.89-0.31,1.78-0.25,2.7
	c0.02,0.31-0.2,0.66-0.05,0.94c0.6,1.16,0.27,2.34,0.08,3.5c-0.13,0.81,0.06,1.55,0.17,2.33c0.22,1.45-0.15,2.89-0.63,4.28
	c-0.2,0-0.4,0-0.6,0c-0.47,0.26-0.23,0.7-0.23,1.05c-0.03,2.13-0.01,4.27-0.01,6.4c-0.01,0.45-0.12,0.87-0.4,1.22
	c-0.93,1.14-1.77,2.35-2.69,3.51C118.48,89.16,118.28,89.51,117.83,89.39z"/>
<path class="st18" d="M179.46,71.33c1.81,1.21,3.54,2.52,4.99,4.16c-0.36,0.72-0.34,1.45-0.38,2.24c-0.06,1.16,0.34,2.33-0.06,3.49
	c-0.27,0.79,0.04,1.65,0.08,2.43c0.06,1.17-0.09,2.33-0.05,3.49c0.04,1.18,0.28,2.39-0.01,3.6c-0.22,0.94,0.03,1.93,0,2.91
	c-0.05,1.53,0.06,3.06-0.15,4.61c-0.1,0.72-0.03,1.61,0.13,2.29c0.26,1.12,0.02,2.2,0.07,3.27c0.05,1.08,0.06,2.24,0,3.37
	c-0.06,1.15-0.1,2.33-0.02,3.48c0.04,0.54,0.16,1.03-0.43,1.33c-0.49,0.05-0.69-0.32-0.92-0.63c-1.02-1.4-2.01-2.82-3.03-4.23
	c-0.25-0.44-0.52-0.87-0.56-1.4c0.24-4.01-0.06-8.01,0.08-12.03c0.08-2.36-0.01-4.76-0.01-7.14c0-2.34-0.08-4.68,0.02-7.02
	c0.08-1.97-0.07-3.96,0-5.95C179.24,72.86,178.88,72.04,179.46,71.33z"/>
<path class="st19" d="M135.59,138.95c1.91,0.11,3.82,0.22,5.73,0.32c0.13,0.21,0.16,0.45,0.15,0.69c-0.19,2.66,0,5.32-0.08,7.98
	c-0.06,1.9-0.04,3.81,0,5.71c0.05,2.7,0,5.4,0.01,8.1c0,0.6-0.04,1.19,0.08,1.78c-0.83,1.53-2.38,1.81-3.86,2.17
	c-0.44,0.11-0.95,0.09-1.41-0.06c-0.29-0.02-0.58-0.04-0.87-0.06c-0.65-1.18-0.47-2.47-0.46-3.72c0.03-2.86,0-5.72,0.01-8.58
	c0-2.02-0.07-4.05,0.02-6.07c0.09-2.19-0.15-4.37,0.04-6.55C135,140.01,134.95,139.36,135.59,138.95z"/>
<path class="st20" d="M108.48,101.85c-0.25-0.81-0.34-1.57-0.18-2.47c0.22-1.17-0.19-2.45-0.04-3.65c0.24-2.04-0.28-4.05,0.1-6.11
	c0.17-0.93-0.21-2.05-0.1-3.07c0.19-1.79-0.34-3.6-0.06-5.3c0.31-1.94-0.3-3.83,0.15-5.78c0.22-0.94-0.19-2.12-0.09-3.18
	c0.22-2.15-0.22-4.29,0.1-6.46c0.15-1.02-0.2-2.22-0.1-3.31c0.18-2.07-0.29-4.14,0.13-6.22c0.13-0.64-0.18-1.4-0.15-2.12
	c1.04,0,2.08,0,3.12,0c0,10.3,0,20.59,0,30.89c0,3.66,0,7.32,0,10.97c0,0.52-0.05,1.04,0.24,1.51c0.09,0.09,0.18,0.22,0.12,0.31
	C110.84,99.34,109.92,100.81,108.48,101.85z"/>
<path class="st21" d="M146.59,138.8c2.12-0.41,4.19-1,6.23-1.69c-0.43,2.26-0.17,4.56-0.14,6.82c0.02,2.15-0.3,4.32,0.09,6.48
	c0.12,0.66,0.02,1.43-0.07,2.11c-0.2,1.46,0.13,2.9,0.04,4.36c-0.03,0.49-0.17,0.93-0.26,1.39c-0.47,0.75-1.35,0.87-2.02,1.32
	c-1.49,0.61-2.79,1.64-4.41,1.97c-0.99-0.1-1.14-0.81-0.76-1.45c0.64-1.07,0.56-1.96-0.04-3c-0.37-0.63-0.27-1.42,0.14-2.06
	c0.51-0.79,0.55-1.51,0.04-2.33c-0.53-0.84-0.5-1.76,0.04-2.6c0.46-0.73,0.44-1.39,0-2.12c-0.54-0.89-0.53-1.82,0.02-2.71
	c0.36-0.59,0.44-1.15,0.13-1.8C144.76,141.69,145.09,140.18,146.59,138.8z"/>
<path class="st22" d="M70.61,105.94c0.37,0.7-0.01,1.4,0,2.1c0.01,1.71-0.1,3.43,0.03,5.13c0.2,2.64-0.01,5.28,0.02,7.92
	c0.03,2.38,0.08,4.77-0.04,7.16c-0.02,0.38,0.11,0.84-0.48,0.93c-0.49,0.21-0.85-0.11-1.18-0.36c-1.54-1.12-3.15-2.14-4.65-3.31
	c-0.15-0.19-0.28-0.38-0.16-0.64c0.42-0.44,0.72-0.84,0.03-1.36c-0.42-0.32-0.71-0.82,0.01-1.22c0.13-0.07,0.33-0.31,0.31-0.34
	c-0.81-1.06,0.31-2.28-0.27-3.34c-0.18-0.32-0.33-0.52,0.06-0.77c0.63-0.41,0.77-0.89,0.15-1.45c-0.09-0.08-0.22-0.23-0.19-0.28
	c0.5-0.98,0.25-1.82-0.47-2.58c0.99-0.82,0.18-1.89,0.38-2.68c0.2-0.81,0.35-1.25-0.25-1.85c-0.36-0.36-0.05-0.62,0.27-0.85
	c0.46-0.33,0.57-0.73,0.16-1.21c-0.36-0.43-0.53-0.87,0.01-1.34c0.44-0.38,0.26-0.77-0.1-1.12c-0.28-0.28-0.61-0.54-0.55-1
	C65.82,104.79,68.16,105.52,70.61,105.94z"/>
<path class="st23" d="M96.55,171.84c0-4.79,0-9.59-0.01-14.38c0.1-0.07,0.21-0.08,0.33-0.05c2.9,1.9,5.7,3.94,8.53,5.94
	c0.26,0.18,0.51,0.39,0.6,0.73c0.02,0.13,0.02,0.26,0,0.39c-0.01,2.57-0.06,5.14-0.02,7.71c0.01,0.82,0.03,1.67-0.59,2.35
	c-1.7,0.15-3.4,0.02-5.1,0.07C98.63,174.22,97.54,173.09,96.55,171.84z"/>
<path class="st24" d="M172.48,96.33c-0.88-1.36-1.76-2.71-2.64-4.07c-0.05-2.78-0.2-5.55,0.04-8.33c0.09-1.03-0.22-2.05-0.17-3.1
	c0.15-2.93,0.07-5.87,0.02-8.8c-0.03-1.71,0.13-3.42,0.03-5.13c-0.03-0.51-0.07-1.36,0.96-1c1.32,0.53,2.54,1.24,3.71,2.05
	c0.56,1.76,0.15,3.57,0.17,5.34c0.05,4.29,0.03,8.59,0,12.88c-0.02,3.46,0.01,6.92,0.01,10.37c0,0.57-0.02,1.11-0.3,1.62
	c-0.6,0.38-0.82-0.15-1.13-0.47C172.81,97.31,172.73,96.78,172.48,96.33z"/>
<path class="st25" d="M88.11,126.02c-1.68,0-3.36,0-5.04,0c-1.49-0.49-0.88-1.82-0.82-2.66c0.11-1.38-0.1-2.74-0.01-4.11
	c0.13-1.98,0.15-3.98,0.11-5.96c-0.02-1.18-0.17-2.36-0.09-3.54c0.13-1.95-0.25-3.91,0.09-5.86c0.05-0.27-0.05-0.46-0.19-0.66
	c-0.24-0.35-0.24-0.66,0.12-0.94c1.19,0.12,1.79,1.1,2.6,1.78c1.16,0.93,2.19,2,3.31,2.98c0.15,0.18,0.25,0.38,0.3,0.61
	c0.09,1.98,0.02,3.97,0.15,5.93c0.17,2.66-0.21,5.3,0.03,7.96c0.11,1.2-0.09,2.45-0.11,3.68C88.56,125.56,88.37,125.81,88.11,126.02
	z"/>
<path class="st26" d="M35.89,94.66c-0.28-5.38,0.27-10.64,2.35-15.67c0.06-0.14,0.15-0.26,0.23-0.4c1.09-1.52,2.72-2.41,4.13-3.56
	c0.16-0.13,0.37-0.14,0.56-0.04c0.57,0.56,0.58,1.3,0.58,2c-0.01,5,0.03,9.99-0.04,14.99c-0.01,0.93,0.41,1.97-0.28,2.86
	c-0.39,0.19-0.81,0.22-1.23,0.18c-1.58,0.06-3.16,0.06-4.74,0.04C36.91,95.05,36.34,95.09,35.89,94.66z"/>
<path class="st27" d="M82.36,102.33c-0.09,0.25-0.3,0.48,0.04,0.74c0.44,0.33,0.76,0.59,0.1,1.15c-0.46,0.38,0.74,1.13-0.06,1.68
	c0.52,0.69-0.18,1.53,0.29,2.24c0.17,0.26,0.39,0.55-0.12,0.74c-0.29,0.11-0.2,0.38-0.13,0.62c0.26,0.92,0.17,1.84-0.01,2.75
	c-0.09,0.45,0.52,0.74,0.38,0.93c-0.9,1.18,0.57,2.56-0.37,3.7c-0.05,0.05-0.08,0.17-0.06,0.22c0.74,1.23-0.4,2.62,0.35,3.85
	c-0.96,0.63,0.82,1.67-0.35,2.27c0.57,0.86-0.42,2.08,0.66,2.81c-1.6,0-3.19,0-4.79,0c-0.39-1.68-0.57-3.37-0.29-5.1
	c0.12-0.71,0.09-1.45-0.16-2.22c-0.2-0.61,0.07-1.38,0.13-2.09c0.07-0.86,0.12-1.68-0.18-2.56c-0.2-0.58,0.1-1.39,0.15-2.1
	c0.06-0.91,0.17-1.75-0.15-2.67c-0.21-0.6,0.04-1.42,0.17-2.09c0.17-0.93-0.18-1.03-0.91-1.02c-1.44,0.02-2.87,0.01-4.31,0
	c-0.39,0-0.8,0.11-1.15-0.18c1.91,0,3.83-0.08,5.73,0.02c1.05,0.05,1.37-0.3,1.46-1.29c0.15-1.62,0.44-3.22,0.98-4.77
	C80.9,100.43,81.96,101.02,82.36,102.33z"/>
<path class="st28" d="M146.59,138.8c-0.37,0.74-0.59,1.53-1.05,2.25c-0.35,0.55-0.35,1.38,0.2,2.01c0.67,0.77,0.67,1.55,0.06,2.37
	c-0.62,0.83-0.61,1.67,0.02,2.5c0.58,0.76,0.57,1.52-0.01,2.28c-0.63,0.83-0.63,1.67,0,2.5c0.58,0.77,0.59,1.52,0.01,2.28
	c-0.63,0.83-0.64,1.67-0.02,2.5c0.61,0.81,0.57,1.57-0.04,2.38c-0.4,0.54-0.9,1.24,0.36,1.41c0.09,0.11,0.09,0.22,0.01,0.33
	c-1.2,0.86-2.57,1.4-3.89,2.03c-0.28,0.13-0.6,0.23-0.91,0.04c-0.39-0.49-0.64-1.01-0.3-1.64c0.05-0.1,0.06-0.24,0.05-0.35
	c-0.25-2.76,0.24-5.52-0.16-8.28c-0.09-0.64,0.21-1.34,0.15-1.99c-0.25-2.6,0.06-5.2-0.1-7.81c-0.08-1.38-0.21-2.93,0.35-4.34
	C143.07,139.12,144.83,138.96,146.59,138.8z"/>
<path class="st29" d="M131.25,165.12c-0.16-0.01-0.32-0.02-0.48-0.03c-2.03-1.43-4.04-2.87-5.45-4.98
	c-0.01-3.93-0.02-7.86-0.05-11.8c0-0.39,0.11-0.67,0.41-0.92c1.78-1.52,3.55-3.05,5.32-4.58c0.49,0.2,0.55,0.64,0.61,1.08
	c0.18,1.5,0.12,3,0.15,4.5c0.05,2.22-0.19,4.43,0.04,6.65c0.04,0.4,0.11,0.8,0.06,1.19c-0.35,2.53,0.15,5.07-0.14,7.6
	C131.67,164.3,131.66,164.78,131.25,165.12z"/>
<path class="st30" d="M183.5,111.92c0.08-0.09,0.25-0.2,0.23-0.25c-0.38-1.15,0.37-2.34-0.1-3.48c-0.03-0.07-0.11-0.18-0.08-0.21
	c0.73-1.12-0.45-2.41,0.3-3.53c0.19-0.29,0.17-0.6-0.07-0.89c-0.1-0.12-0.26-0.3-0.23-0.39c0.32-0.97,0.07-1.93,0.06-2.9
	c0-0.59,0.32-1.14-0.24-1.64c-0.05-0.04-0.09-0.2-0.06-0.22c1.21-0.96-0.36-2.41,0.59-3.43c0.16-0.17,0.1-0.46-0.04-0.68
	c-0.11-0.16-0.34-0.41-0.3-0.48c0.72-1.13-0.48-2.42,0.3-3.54c0.2-0.28,0.18-0.62-0.08-0.88c-0.33-0.33-0.39-0.77-0.15-1.09
	c0.41-0.55-0.05-1.1,0.04-1.48c0.27-1.23-0.27-2.46,0.16-3.64c0.1-0.28,0.18-0.52,0.01-0.78c-0.09-0.13-0.26-0.28-0.24-0.4
	c0.18-1.08,0.13-2.14,0.06-3.23c-0.03-0.5,0.24-0.98-0.04-1.6c-0.34-0.73,0.08-1.37,0.84-1.7c1,0.83,1.91,1.76,2.68,2.81
	c-0.42,0.62-1.1,1.14-0.54,2.06c0.19,0.31-0.01,0.78-0.22,1.13c-0.1,0.17-0.19,0.34-0.29,0.52c1.58,0.79-0.27,2.16,0.52,3.1
	c0.11,0.14,0.06,0.5-0.03,0.69c-0.31,0.64-0.64,1.21,0.18,1.77c0.28,0.19,0,0.59-0.13,0.88c-0.18,0.39-0.38,0.69-0.08,1.19
	c0.43,0.73-0.63,1.72-0.33,2.03c0.71,0.72,0.61,1.23,0.22,1.97c-0.3,0.58,0.49,1.16,0.13,1.8c-0.33,0.58-0.68,1.14,0.15,1.65
	c0.21,0.13,0.17,0.45,0.01,0.65c-0.43,0.55-0.07,1.44-0.22,1.67c-0.79,1.25,0.59,2.35-0.01,3.64c-0.33,0.72,0.3,1.87-0.42,2.72
	c1.6,0.83-0.25,2.23,0.52,3.23c0.19,0.25-0.04,0.69-0.22,1.01c-0.1,0.17-0.19,0.34-0.29,0.52c1.58,0.79-0.17,2.1,0.49,3.12
	c0.31,0.49-0.03,1.24-0.67,1.62c-0.69,0.11-0.84-0.49-1.14-0.88C184.38,113.55,183.37,113.02,183.5,111.92z"/>
<path class="st31" d="M57.19,94.66c-0.32,0-0.64,0-0.96,0c-0.78-0.94-0.46-2.09-0.46-3.12c0-1.07,0-2.14,0.02-3.22
	c0.06-3.57-0.03-7.14-0.03-10.71c0-4.13,0-8.27,0.01-12.4c0-0.24,0.05-0.48,0.18-0.69c0.45-0.63,1.06-1.09,1.7-1.49
	c0.86-0.53,1.09-0.39,1.1,0.62c0.01,4.86,0,9.72,0,14.58c0,1.65-0.16,1.44,1.48,1.45c1.91,0.01,3.82,0,5.74,0
	c0.72,0.01,1.44-0.03,2.17,0.02c0.23,0.15,0.23,0.34,0.09,0.55c-2.06,0.73-4.11,1.4-5.85,2.87c-3.02,2.54-4.25,5.77-4.19,9.61
	c0.01,0.64,0.01,1.28,0.02,1.91C57.86,94.95,57.53,94.96,57.19,94.66z"/>
<path class="st32" d="M161.78,62.03c1.73,0.46,3.39,1.1,4.97,1.94c0.15,2.49-0.22,4.98,0.04,7.47c0.17,1.62-0.1,3.24-0.06,4.87
	c0.04,2.21,0.15,4.43-0.01,6.65c-0.06,0.75-0.14,1.5-0.02,2.26c0.09,0.56,0.02,1.11-0.25,1.62c-0.3,0.4-0.59,0.17-0.77-0.08
	c-1.6-2.25-3.35-4.39-4.62-6.87c0.31-2.49,0.11-4.99,0.13-7.49c0.01-1.94,0.01-3.89,0.01-5.83c0-1.27-0.18-2.54-0.06-3.81
	C161.18,62.31,161.19,61.94,161.78,62.03z"/>
<path class="st33" d="M152.35,158.17c0.32-0.87-0.44-1.8,0.19-2.67c0.32-0.44-0.43-0.74-0.29-1.31c0.3-1.19,0.35-2.55,0.18-3.64
	c-0.19-1.28-0.24-2.65-0.09-3.76c0.17-1.31-0.29-2.55,0.04-3.9c0.26-1.05,0.16-2.42-0.08-3.62c-0.16-0.83,0.23-1.48,0.52-2.17
	c0.16-0.08,0.33-0.15,0.49-0.23c1.76,0.97,3.52,1.91,4.79,3.54c0.19,3.43,0.14,6.86,0.08,10.29c-0.02,1.55,0.24,3.11-0.1,4.66
	c-0.18,0.46-0.57,0.68-0.97,0.89c-1.11,0.53-2.2,1.08-3.29,1.65C153.34,158.05,152.92,158.55,152.35,158.17z"/>
<path class="st34" d="M35.89,94.66c2.14,0,4.29,0,6.43,0c-0.11,0.67,0.05,1.42-0.59,1.95c-0.26,0.22-0.02,0.51,0.1,0.75
	c0.19,0.37,0.28,0.75,0.15,1.15c-0.33,0.95,0.22,1.08,0.97,1.1c0.7,0.02,1.43-0.13,2.1,0.22c0.27,0.21,0.48,0.52,0.4,0.82
	c-0.31,1.15,0.42,2.3-0.09,3.5c-0.25,0.59,0.04,1.4,0.11,2.09c0.11,1.21-0.16,2.39-0.02,3.58c0.07,0.6-0.06,1.1-0.59,1.45
	c-0.38,0.19-0.7,0.04-1-0.17c-1.71-1.18-3.41-2.36-5.1-3.56c-0.34-0.24-0.5-0.61-0.8-0.87C36.46,102.8,35.92,98.77,35.89,94.66z"/>
<path class="st35" d="M37.96,106.66c2.01,1.39,4.03,2.78,6.04,4.18c0.23,0.16,0.43,0.36,0.73,0.36c1.3,0.47,2.27,1.44,3.39,2.18
	c0.93,0.61,1.82,1.29,2.73,1.93c1.59,1.05,3.12,2.18,4.67,3.28c0.29,0.2,0.63,0.36,0.71,0.76c0.16,0.16,0.32,0.32,0.47,0.48
	c0.16,0.35-0.71-0.11-0.32,0.38c0.36,0.45,0.3,0.89,0.28,1.43c-0.05,1.31-0.35,2.62,0.02,3.96c0.18,0.65-0.07,1.4-0.22,2.09
	c-0.05,0.22-0.3,0.21-0.48,0.05c-0.71-0.12-1.05-0.69-1.44-1.2c0.01-0.08,0-0.16,0.03-0.24c0.25-0.74,1.08-1.48,0.77-2.12
	c-0.25-0.53-1.26-0.7-1.94-1.02c-7.03-3.34-12.35-8.34-15.22-15.7C38.1,107.2,38.04,106.93,37.96,106.66z"/>
<path class="st36" d="M147.79,54.15c1.44-0.1,2.88-0.1,4.31,0c0.51,0.63,0.34,1.36,0.3,2.07c-0.19,2.9-0.02,5.8-0.06,8.7
	c-0.03,2.15,0.07,4.29-0.04,6.44c-0.05,1.03-0.07,2.07,0.06,3.1c0.11,0.83,0.13,1.68-0.59,2.32c-1.4,0.01-2.79,0.06-4.18-0.02
	c-0.61-0.85-0.38-1.86-0.38-2.78c0.02-4.23-0.06-8.45,0.02-12.68c0.03-1.83-0.06-3.67,0.03-5.5
	C147.29,55.19,147.3,54.6,147.79,54.15z"/>
<path class="st37" d="M131.25,165.12c-0.06-2.08,0.09-4.17,0.13-6.25c0.04-2.24-0.37-4.5,0.08-6.75c0.14-0.72,0.11-1.5-0.12-2.25
	c-0.18-0.61-0.14-1.27,0-1.9c0.39-1.76-0.04-3.46-0.33-5.18c1.48-1.34,2.8-2.88,4.59-3.85c-0.53,1.5-0.27,3.06-0.33,4.59
	c-0.06,1.38,0.12,2.76-0.05,4.15c-0.08,0.61,0.15,1.26,0.11,1.88c-0.19,2.65-0.09,5.31-0.08,7.94c0,2.68-0.13,5.38,0.1,8.06
	C133.95,165.61,132.59,165.45,131.25,165.12z"/>
<path class="st38" d="M179.46,71.33c0.15,11.53,0.09,23.06-0.03,34.6c-0.22,0.09-0.41,0.01-0.53-0.15c-1.04-1.3-2.12-2.57-2.69-4.17
	c0.1-2.29,0.02-4.59,0.13-6.88c0.09-2.01-0.14-4.01,0.05-6.02c0.1-1.13-0.11-2.3-0.05-3.45c0.12-2.05-0.13-4.1,0.05-6.15
	c0.09-1.06-0.05-2.14-0.05-3.22c-0.01-1.82,0.08-3.64-0.07-5.46c-0.04-0.54,0.17-0.97,0.86-0.73
	C177.92,70.21,178.79,70.63,179.46,71.33z"/>
<path class="st39" d="M147.55,76.62c1.44,0,2.88,0,4.32,0c1.18-0.46,2.35-0.55,3.51,0.07c-0.19,0.05-0.37,0.13-0.56,0.13
	c-9.34-0.01-18.68-0.02-28.01-0.04c-0.2,0-0.39-0.04-0.59-0.07c-0.51-0.7-0.44-1.52-0.44-2.3c0.03-6.75,0.09-13.5-0.04-20.24
	c1.6,0,3.19,0,4.79,0c0.37,0.91,0.15,1.88,0.17,2.8c0.05,2.1,0.02,4.2,0.01,6.3c-0.01,2.69-0.06,5.37,0.04,8.06
	c0.02,0.4,0.14,0.78,0.13,1.19c-0.48,1.41-1.72,2.33-2.47,3.82c2.06,0.04,4.02,0.03,5.97,0c1.59-0.04,3.19-0.05,4.78,0
	c1.43-0.06,2.87-0.06,4.3,0C144.83,76.39,146.23,75.98,147.55,76.62z"/>
<path class="st40" d="M166.25,86.99c0.03-2.86,0.09-5.73,0.09-8.59c0-2.67,0.19-5.34-0.07-8.01c-0.06-0.66-0.03-1.36,0.09-2.01
	c0.17-0.92,0.16-1.8-0.04-2.71c-0.13-0.58-0.32-1.29,0.44-1.69c1.4,0.48,2.74,1.09,3.97,1.93c-0.67-0.03-0.68,0.43-0.63,0.89
	c0.19,1.99-0.18,4,0.06,5.96c0.13,1.07-0.11,2.07-0.06,3.1c0.1,1.95-0.06,3.91,0.05,5.85c0.09,1.68-0.23,3.36-0.02,5.01
	c0.19,1.49-0.09,2.95-0.04,4.42c0.01,0.38,0.13,0.81-0.23,1.12c-0.96-1.36-1.92-2.72-2.88-4.07
	C166.54,87.9,166.02,87.67,166.25,86.99z"/>
<path class="st41" d="M88.11,126.02c0.28-1.92,0.2-3.86,0.2-5.79c0-1.07-0.03-2.12,0.15-3.21c0.19-1.13-0.24-2.32-0.15-3.52
	c0.16-1.96-0.2-3.93,0.04-5.89c0.94,0.05,1.43,0.84,2.09,1.33c0.34,0.25,0.61,0.6,0.93,0.88c1.02,0.84,2.08,1.64,2.75,2.82
	c0.24,2.22,0.04,4.46,0.08,6.68c0.04,1.95-0.02,3.91,0.02,5.86c0.01,0.65-0.14,0.92-0.85,0.89
	C91.62,126.01,89.86,126.03,88.11,126.02z"/>
<path class="st42" d="M93.86,54.16c-0.06,1.45-0.14,2.9-0.16,4.35c-0.05,3.65,0.03,7.3-0.03,10.95c-0.03,2.09,0.02,4.18-0.05,6.27
	c-0.48,0.07-0.61-0.32-0.73-0.63c-1.25-3.29-2.56-6.57-3.63-9.93c-0.05-0.15,0-0.31,0.05-0.47c-1.28-3.51-2.56-7.03-3.84-10.54
	C88.27,54.16,91.07,54.16,93.86,54.16z"/>
<path class="st43" d="M130.77,72.37c-0.77-0.62-0.56-1.71-0.49-2.28c0.38-2.84,0.09-5.68,0.1-8.5c0.01-1.92,0.47-3.9-0.16-5.84
	c-0.15-0.44,0.19-1.05,0.31-1.58c2.16,0,4.32,0,6.47,0c0.36,0.41,0.24,0.79-0.07,1.17c-0.76,0.96-0.89,1.85-0.25,2.76
	c0.64,0.9,0.63,1.56-0.14,2.41c-0.67,0.74-0.29,1.65,0.18,2.42c0.2,0.33,0.54,0.59,0.62,1c-0.01,0.65-0.47,1.06-0.84,1.51
	c-0.92,1.13-1.75,2.32-2.64,3.47c-0.71,0.9-1.34,1.85-2.08,2.72C131.52,71.95,131.24,72.3,130.77,72.37z"/>
<path class="st44" d="M147.55,76.62c-1.36,0-2.71,0-4.07,0c-0.08-2.01-0.11-4.02-0.12-6.03c-0.01-2.66-0.01-5.32,0.01-7.97
	c0.01-1.9-0.12-3.81-0.02-5.71c0.01-0.29-0.07-0.55-0.19-0.8c0.14-0.93,0.74-1.5,1.52-1.94c1.04-0.11,2.07-0.1,3.11,0
	c-0.16,2.28-0.1,4.56-0.14,6.83c-0.04,2.45-0.05,4.91-0.04,7.35c0.01,2.32-0.35,4.67,0.12,6.99
	C147.82,75.73,147.62,76.19,147.55,76.62z"/>
<path class="st45" d="M198.1,128.45c-1.2-0.31,0.15-1.37-0.5-1.76c-0.87-0.52-0.78-1.09-0.26-1.76c0.63-0.8,0.04-1.82,0.46-2.66
	c0.03-0.05-0.01-0.19-0.05-0.22c-1.55-0.85-0.2-1.79-0.15-2.72c0.04-0.83,0.64-1.84-0.41-2.54c-0.3-0.2-0.38-0.61-0.19-0.86
	c0.69-0.92,0.62-2,0.76-3.05c0.04-0.27,0.04-0.5-0.19-0.62c-0.84-0.44-0.77-1.02-0.26-1.65c0.67-0.84,0.12-1.88,0.49-2.77
	c0.02-0.05-0.02-0.19-0.07-0.21c-1.44-0.74-0.35-1.63-0.18-2.5c0.18-0.93,0.64-1.94-0.38-2.75c-0.36-0.29-0.27-0.7-0.03-1.08
	c0.74-1.18,0.84-2.34-0.03-3.54c-0.47-0.65,0.1-1.63,1.01-1.9c1.72,4.64,2.67,9.42,2.73,14.38c0.06,4.6-0.03,9.17-1.25,13.64
	C199.15,125.42,198.6,126.93,198.1,128.45z"/>
<path class="st46" d="M164.57,128.7c0.07,0.49,0.22,0.83,0.73,0.33c0.31-0.3,0.6-0.63,0.92-0.97c0.66,0.56,0.41,1.3,0.45,1.97
	c0.05,0.99-0.69,0.97-1.36,1.11c-0.45,0.1-0.78,2.08-0.4,2.36c0.38,0.29,0.55-0.12,0.75-0.34c0.2-0.23,0.27-0.66,0.69-0.53
	c0.43,0.13,0.39,0.56,0.38,0.91c-0.03,1.07,0.15,2.26-1.47,2.36c-0.52,0.03-0.46,0.49-0.43,0.83c0.04,0.54-0.21,1.13,0.17,1.61
	c0.15,0.19,0.36-0.04,0.5-0.17c0.25-0.24,0.48-0.51,0.73-0.77c0.96,1.64,0.67,2.65-0.98,3.27c-0.48,0.18-0.45,0.52-0.42,0.86
	c0.04,0.54-0.22,1.13,0.18,1.6c0.15,0.18,0.36-0.05,0.5-0.18c0.25-0.24,0.48-0.51,0.73-0.77c0.81,1.43,0.7,2.27-0.45,3.5
	c-0.05,0.02-0.1,0.04-0.16,0.06c-1.5-0.62-2.64-1.8-4.05-2.57c-0.75-0.78-1.98-1.02-2.45-2.12c0.49-1.58,0.47-3.17,0.22-4.8
	c-0.14-0.93,0.32-1.87,0.12-2.83C161.25,131.96,162.97,130.39,164.57,128.7z"/>
<path class="st47" d="M64.38,125.33c1.92,1.28,3.83,2.56,5.75,3.84c1.33,1.08,2.65,2.17,4.23,2.88c-1.18,2.48-2.36,4.95-3.54,7.43
	c-0.17,0.14-0.38,0.18-0.55,0.05c-1.95-1.46-3.96-2.84-5.65-4.61c-0.08-0.16-0.16-0.32-0.24-0.48c0.16-0.61-0.11-1.05-0.51-1.48
	c-0.43-0.45-0.52-0.92,0.22-1.17c0.61-0.21,0.41-0.56,0.16-0.91c-0.34-0.48-0.6-0.92-0.06-1.46c0.43-0.43,0.08-0.79-0.22-1.12
	c-0.45-0.51-0.75-1,0.17-1.33c0.42-0.15,0.39-0.42,0.24-0.75C64.27,125.93,64.12,125.63,64.38,125.33z"/>
<path class="st48" d="M177.12,69.7c-0.41,0.05-0.8,0.31-0.62,0.68c0.57,1.2,0.21,2.52,0.27,3.7c0.05,1.13-0.15,2.46-0.07,3.66
	c0.13,1.94-0.18,3.86,0.09,5.83c0.15,1.08-0.07,2.43-0.1,3.65c-0.05,1.73-0.24,3.49-0.06,5.2c0.2,1.9-0.1,3.78,0.05,5.68
	c0.07,0.95-0.05,1.98,0.05,2.98c0.03,0.28-0.18,0.42-0.4,0.53c-1.18-0.82-2.06-1.83-2.16-3.35c0.05-2.32,0.06-4.65,0.1-6.97
	c0.05-2.32,0-4.65,0.03-6.96c0.03-2.39,0.21-4.8-0.07-7.2c-0.13-1.07,0.17-2.16,0.1-3.26c-0.12-1.97-0.06-3.95,0.11-5.91
	C175.32,68.54,176.34,68.93,177.12,69.7z"/>
<path class="st49" d="M155.38,76.68c-1.17-0.02-2.34-0.04-3.51-0.07c0.21-3.05-0.07-6.11,0.1-9.16c0.13-2.2-0.37-4.39,0.11-6.58
	c0.17-0.78-0.29-1.54-0.21-2.36c0.14-1.45,0.16-2.91,0.24-4.37c0.4,0,0.8,0.01,1.2,0.01c1.13,0.75,1.69,1.88,2.13,3.11
	C155.47,63.74,155.57,70.21,155.38,76.68z"/>
<path class="st50" d="M125.74,54.16c0.7,0.89,0.44,1.95,0.45,2.93c0.05,3.54-0.02,7.08-0.02,10.63c0,3,0.03,5.99,0.05,8.99
	c-1.2,0.12-2.4,0.11-3.6,0c0.08-1,0.01-2.04,0.31-2.97c0.2-0.64,0.14-1.13-0.08-1.64c-0.49-1.12-0.03-2.22,0.1-3.29
	c0.06-0.47,0.17-0.84-0.05-1.29c-0.55-1.12-0.12-2.29,0.03-3.4c0.08-0.55,0.19-1.01-0.06-1.52c-0.54-1.09-0.12-2.22,0.06-3.28
	c0.1-0.56,0.1-1-0.04-1.53c-0.15-0.56-0.52-1.07-0.12-1.79c0.24-0.43,0.12-1.23-0.15-1.82C123.66,54.16,124.7,54.16,125.74,54.16z"
	/>
<path class="st51" d="M79.96,54.16c-0.01,0.08,0,0.2-0.05,0.23c-0.82,0.5-1.36,1.03-0.28,1.83c0.07,0.05,0.05,0.41,0,0.43
	c-1.23,0.53-0.38,1.14-0.08,1.72c0.18,0.35,0.27,0.77-0.15,0.93c-0.98,0.36-0.43,0.83-0.11,1.23c0.4,0.5,0.69,0.87-0.1,1.3
	c-0.57,0.31-0.03,0.63,0.13,0.92c0.31,0.57,0.73,1.06-0.23,1.53c-0.59,0.29-0.03,0.75,0.2,1.04c0.4,0.5,0.7,0.9-0.12,1.29
	c-0.6,0.29-0.05,0.59,0.07,0.84c0.3,0.58,0.89,1.09-0.17,1.62c-0.58,0.29-0.02,0.75,0.21,1.04c0.4,0.5,0.69,0.9-0.12,1.29
	c-0.6,0.29-0.05,0.59,0.08,0.84c0.3,0.59,0.92,1.17-0.19,1.59c-0.34,0.13-0.26,0.44-0.1,0.58c1.01,0.88,0.59,1.6-0.21,2.3
	c-1.04,0.12-2.08,0.12-3.12,0c0.15-0.32,0.46-1.99,0.32-2.41c-0.29-0.86,0.46-1.8-0.23-2.61c1.16-1.18,0.07-2.54,0.24-3.84
	c0.24-1.83,0.26-3.78-0.22-5.65c-0.01-0.04-0.03-0.1-0.02-0.11c1.16-1.18,0.02-2.54,0.23-3.84c0.21-1.3,0.3-2.72,0.16-4.09
	C77.4,54.16,78.68,54.16,79.96,54.16z"/>
<path class="st49" d="M134.61,85.76c-3.16,0.75-6.29,1.61-9.33,3.38c0-2.66,0-5.1,0-7.54c0-2.05,0-2.05,2.04-2.05
	c2.43,0.01,4.86,0.03,7.29,0.04c0.72,1.1,0.22,2.34,0.34,3.51C135.04,83.98,135.23,84.95,134.61,85.76z"/>
<path class="st52" d="M166.25,86.99c0.24,0.4,0.48,0.8,0.72,1.2c-2,0.42-2.08,0.52-1.79,2.21c0.07,0,0.17,0.04,0.21,0.01
	c0.36-0.25,0.54-0.95,1.11-0.68c0.54,0.25,0.45,0.86,0.46,1.38c0.04,1.14-0.33,1.94-1.49,2.4c-0.88,0.35-0.19,1.34-0.74,1.91
	c0.66,0.17,0.71-0.23,0.9-0.46c0.23-0.27,0.45-0.64,0.87-0.46c0.36,0.16,0.51,0.55,0.44,0.9c-0.15,0.86,0.01,1.78-0.45,2.59
	c-1.76-2.24-3.78-4.22-5.99-6c-0.12-1.48-0.48-2.95-0.22-4.45c0.14-0.79,0.22-1.64,0.03-2.38c-0.38-1.41,0.16-2.76,0.04-4.14
	c-0.04-0.49,0.08-0.96,0.54-1.26c0.11-0.04,0.22-0.02,0.32,0.04C162.85,82.23,164.45,84.68,166.25,86.99z"/>
<path class="st53" d="M96.73,157.46c-0.06,0-0.13,0-0.19,0c-0.01-0.32-0.04-0.64-0.04-0.95c0-22.37,0-44.74,0-67.11
	c0-0.32,0.03-0.64,0.04-0.95c0.41,1.15,0.26,2.36,0.15,3.51c-0.16,1.74,0.27,3,1.96,3.67c0.11,0.37,0.53,0.43,0.72,0.71
	c0.06,0.06,0.15,0.14,0.13,0.19c-0.42,1.17-0.07,2.37-0.04,3.53c0.03,1.22-0.17,2.43-0.04,3.68c0.11,1.1,0.31,2.33-0.1,3.46
	c-0.07,0.19-0.18,0.4-0.08,0.57c0.69,1.11,0.15,2.35,0.2,3.49c0.04,0.85,0.11,1.74,0.14,2.61c-0.31,0.93-0.99,1.63-1.57,2.37
	c-0.64,0.83-0.93,1.71-0.92,2.75c0.02,3.3,0.04,6.6,0,9.9c0.12,9.08,0.03,18.16,0.04,27.24C97.14,156.6,97.13,157.09,96.73,157.46z"
	/>
<path class="st54" d="M42.33,157.46c2.61,1.51,4.93,3.45,7.42,5.13c0.89,0.6,1.77,1.2,2.65,1.81c0.72,0.55,1.43,1.1,2.15,1.65
	c-4.39,0-8.78,0-13.17,0c-0.09-0.09-0.2-0.23-0.15-0.31c0.47-0.77,0.21-1.41-0.3-2.05c-0.25-0.31-0.25-0.74,0.2-0.89
	c0.62-0.21,0.57-0.52,0.28-0.97c-0.15-0.23-0.31-0.56-0.2-0.79c0.4-0.86,0.18-1.56-0.34-2.29c-0.26-0.36-0.03-0.68,0.38-0.82
	C41.62,157.81,42.01,157.72,42.33,157.46z"/>
<path class="st55" d="M156.67,89.38c-2.23-1.18-4.59-2.05-6.96-2.89c-0.37-0.95-0.17-1.95-0.16-2.92c0.02-1.32-0.13-2.66,0.16-3.98
	c2.4,0,4.79,0,7.19,0c0.38,0.35,0.5,0.82,0.45,1.3c-0.2,2.38,0.11,4.76-0.09,7.13C157.22,88.53,157.45,89.2,156.67,89.38z"/>
<path class="st56" d="M64.62,134.92c1.99,1.18,3.62,2.83,5.48,4.18c0.23,0.16,0.42,0.37,0.72,0.38c-1.77,3.86-3.53,7.73-5.48,11.51
	c-0.27-0.39-0.51-0.81-0.82-1.16c-0.25-0.29-0.37-0.66-0.06-0.81c0.81-0.41,0.38-0.91,0.15-1.36c-0.56-1.1-0.58-1.09,0.54-1.38
	c0.01-0.35-0.24-0.57-0.41-0.84c-0.14-0.23-0.4-0.63-0.32-0.73c0.77-1.02,0.16-1.74-0.3-2.65c-0.3-0.59,0.76-0.19,1.02-0.58
	c0.01-0.35-0.24-0.57-0.41-0.84c-0.14-0.23-0.4-0.63-0.32-0.73c0.77-1.02,0.16-1.74-0.3-2.65c-0.3-0.59,0.76-0.18,1.02-0.57
	C65.23,136.03,64.16,135.71,64.62,134.92z"/>
<path class="st57" d="M161.21,79.8c-0.08,0-0.16,0-0.24,0c-1.08-1.14-1.97-2.42-2.66-3.83c0-4.97,0-9.95,0-15.02
	c1.22,0.25,2.37,0.56,3.47,1.08c-0.82,0.49-0.3,1.33-0.31,1.9c-0.03,2.56-0.09,5.14-0.02,7.69c0.06,2.16-0.18,4.33,0.07,6.49
	C161.59,78.64,161.79,79.33,161.21,79.8z"/>
<path class="st58" d="M134.61,85.76c0-2.06,0-4.11,0-6.17c2.88,0,5.75,0,8.63,0c0.09,0.13,0-0.05,0.08,0.08
	c0.61,0.97,0.55,4.7-0.08,5.65C140.35,85.2,137.47,85.42,134.61,85.76z"/>
<path class="st59" d="M121.66,84.6c0-2.25-0.01-4.5,0.01-6.76c0-0.4-0.2-0.9,0.36-1.14c-0.23,0.49-0.13,1.02-0.13,1.54
	c0,31.7-0.01,63.41,0.02,95.11c0,1.04-0.19,1.43-1.33,1.39c-2.91-0.11-5.83-0.06-8.74-0.07c-0.07-0.11-0.1-0.23-0.07-0.36
	c0.31-1.39,0.36-2.8,0.19-4.2c-0.07-0.64,0.08-1.08,0.74-1.26c0.94,0.12,1.61,0.78,2.38,1.24c1.61,1.1,3.23,2.2,4.81,3.34
	c0.32,0.23,0.66,0.59,1.06,0.41c0.49-0.22,0.34-0.76,0.34-1.18c0.01-6.97,0.01-13.94,0.01-20.91c0-0.4-0.03-0.8,0.02-1.2
	c-0.12-4.59-0.04-9.17-0.05-13.75c-0.02-7.97,0-15.95,0-23.92c0-0.48-0.02-0.96,0.05-1.43c-0.11-8.37-0.03-16.74-0.05-25.11
	C121.25,85.72,121.45,85.16,121.66,84.6z"/>
<path class="st60" d="M86.65,84.82c1-1.52,2.04-3.01,3.3-4.34c0.69-0.28,1.07,0.1,1.36,0.65c-0.54,1.87,0.03,3.77-0.2,5.65
	c-0.29,2.32,0.19,4.67-0.16,6.99c-0.06,0.42,0.05,0.9-0.48,1.12c-1.11,0.19-2.22,0.28-3.3-0.15c-0.65-1.01-0.53-2.18-0.46-3.24
	C86.85,89.27,86.62,87.05,86.65,84.82z"/>
<path class="st61" d="M158.32,75.97c1.04,1.17,2,2.39,2.66,3.83c-0.19,0.39-0.28,0.78-0.33,1.23c-0.22,1.97,0.19,3.96-0.08,5.9
	c-0.24,1.71,0.45,3.39-0.07,5.07c-1.28-0.87-2.56-1.74-3.84-2.61c0.59-1.2,0.34-2.55,0.3-3.74c-0.08-2.02,0.17-4.04-0.06-6.05
	c1,0,1.4-0.52,1.37-1.5C158.24,77.39,158.3,76.68,158.32,75.97z"/>
<path class="st54" d="M43.05,75.01c-1.53,1.2-3.05,2.39-4.58,3.59c1.36-3.68,3.61-6.8,6.24-9.65c1.3-1.4,2.65-2.75,4.28-3.79
	c0.54-0.13,0.65,0.3,0.83,0.63c0.49,0.91,0.79,1.87,1,2.88c-0.21,1.21-1.4,1.48-2.1,2.23c-1.42,1.19-2.94,2.27-4.35,3.48
	C44.01,74.68,43.66,75.14,43.05,75.01z"/>
<path class="st62" d="M94.12,112.64c-0.97-0.88-1.93-1.76-2.9-2.64c-0.21-0.31-0.33-0.65-0.28-1.02c0.33-2.3,0.07-4.62,0.07-6.92
	c0-2.34,0.27-4.69-0.07-7.03c-0.03-0.2-0.03-0.4,0.17-0.53c1.03-0.32,2.04-0.43,3.02,0.15C94.13,100.65,94.13,106.64,94.12,112.64z"
	/>
<path class="st63" d="M144.68,54.16c-0.48,0.64-0.96,1.28-1.44,1.91c0.16,0.56-0.28,0.88-0.56,1.23c-1.28,1.6-2.48,3.27-3.73,4.91
	c-0.59,0.58-0.89,1.43-1.71,1.77c-0.75-0.71-1.36-1.47-1.3-2.6c0.03-0.53-0.18-0.99,0.57-1.33c0.76-0.34,0.58-1.12,0.06-1.58
	c-0.86-0.76-0.41-1.77-0.67-2.64c-0.07-0.24,0.21-0.41,0.46-0.46c0.7-0.15,0.66-0.68,0.65-1.21
	C139.56,54.16,142.12,54.16,144.68,54.16z"/>
<path class="st64" d="M94.13,94.66c-1.05,0-2.1,0-3.14,0.01c-0.08,0.07-0.16,0.07-0.24,0c-0.3-1.37,0.19-2.72,0.02-4.1
	c-0.25-2.1,0.06-4.2,0.14-6.29c0.03-0.71-0.38-1.39-0.18-2.15c0.1-0.36,0.12-0.7,0.5-0.88c1.21,0.02,1.89,1,2.72,1.47
	c-0.23-0.99-0.41-2.04,0.15-3.08c0.37,0.49,0.17,1.06,0.17,1.59C94.24,85.7,94.18,90.18,94.13,94.66z"/>
<path class="st65" d="M50.72,68.78c-0.65-0.86-0.63-1.99-1.18-2.9c-0.16-0.27-0.23-0.57-0.55-0.71c2.66-2.23,5.73-3.67,9.03-4.68
	c1.05-0.32,0.79,0.43,0.79,0.91c0.02,5.66,0.05,11.33,0,16.99c-0.01,1,0.25,1.27,1.24,1.23c1.99-0.08,3.99-0.02,5.98-0.02
	c0.08,0.02,0.12,0.05,0.11,0.09c-0.01,0.05-0.02,0.08-0.04,0.08c-2.11,0.01-4.22-0.03-6.32,0.05c-1.02,0.04-1.17-0.4-1.16-1.27
	c0.03-4.97,0.01-9.95,0.01-14.92c0-0.2,0-0.39,0-0.77c-1.08,0.58-1.91,1.25-2.63,2.07c-1.35,1.48-3,2.59-4.59,3.77
	C51.21,68.85,50.96,68.92,50.72,68.78z"/>
<path class="st66" d="M192.13,124.62c1.62,2.25,3.24,4.5,4.86,6.75c-0.87,2.29-2.02,4.43-3.42,6.43c-0.46,0.27-0.8,0.86-1.48,0.55
	c-0.47-0.58-0.62-1.25-0.62-2c0-3.29,0.06-6.59,0-9.88C191.47,125.76,191.6,125.12,192.13,124.62z"/>
<path class="st67" d="M192.13,138.28c0.48-0.16,0.96-0.32,1.44-0.48c-2.49,4.19-5.6,7.89-9.11,11.27c-1.07-0.04-1.45-0.46-1.1-1.33
	c0.22-0.54,0.5-0.99-0.11-1.44c-0.12-0.09-0.21-0.32-0.12-0.43c0.76-0.98-0.01-2.04,0.17-3.05c0.33-0.63,0.98-0.84,1.54-1.17
	c2.09-0.88,4.05-2.01,6.09-2.98C191.31,138.47,191.64,138.11,192.13,138.28z"/>
<path class="st68" d="M143.24,85.33c0.27-1.91,0.07-3.82,0-5.73c2.16,0,4.31,0,6.47,0c0.4,2.3,0.25,4.6,0,6.9
	c-1.68-0.33-3.36-0.66-5.04-0.99c-0.42-0.17-0.88,0.02-1.29-0.17l-0.07,0.05L143.24,85.33z"/>
<path class="st69" d="M170.56,149.07c0.08,0,0.15,0,0.23,0.01c0.66,0.21,1.3,0.45,1.59,1.17c-0.57,1.57-0.06,3.19-0.24,4.78
	c-0.11,0.97,0.12,1.95-0.12,2.91c-1.36,0.89-2.8,1.62-4.32,2.2c-0.77-0.67-0.73-1.59-0.63-2.43c0.14-1.12,0.21-2.23,0.02-3.34
	c-0.19-1.12,0.21-2.23-0.02-3.34C167.9,149.78,169.26,149.48,170.56,149.07z"/>
<path class="st9" d="M172.24,150.27c-0.4-0.5-1.1-0.63-1.44-1.19c0.32-0.17,0.65-0.33,0.97-0.5c0.3-0.44,0.72-0.73,1.2-0.94
	c1.91-0.83,3.62-2.09,5.68-2.61c1.14,0.44,0.62,1.49,0.65,2.19c0.07,1.53-0.15,3.08,0.05,4.61c0.07,0.53-0.34,0.99-0.22,1.52
	c-0.26,0.37-0.63,0.6-1.04,0.77c-0.15,0.05-0.33,0.1-0.47,0.02C175.7,153.02,173.78,151.91,172.24,150.27z"/>
<path class="st7" d="M179.11,153.37c-0.19-0.15-0.43-0.31-0.32-0.57c0.43-0.98-0.03-1.95,0.03-2.91c0.05-0.72-0.04-1.47,0.12-2.14
	c0.18-0.79-0.23-1.51-0.01-2.27c0.02-0.06-0.15-0.17-0.23-0.25c-0.02-0.61,0.58-0.66,0.89-0.97c0.96-0.57,2.03-0.91,3.02-1.43
	c0.28-0.14,0.59-0.27,0.89,0c0,0.2-0.08,0.46,0.02,0.59c0.58,0.81,0.62,1.52-0.1,2.29c-0.28,0.29,0.02,0.6,0.37,0.69
	c0.69,0.17,0.57,0.43,0.19,0.89c-0.81,0.98-0.72,1.23,0.48,1.78C182.85,150.71,181.04,152.12,179.11,153.37z"/>
<path class="st70" d="M167.2,150.98c0.84,1.03-0.1,2.18,0.22,3.28c0.46,1.52-0.18,3.07,0.02,4.61c0.06,0.43,0.17,0.85,0.25,1.28
	c-1.05,0.6-2.15,1.1-3.33,1.41c-0.7,0.07-1.18-0.21-1.18-0.96c0-2.58,0.08-5.15,0-7.73c0.58-0.93,1.68-1.06,2.5-1.61
	C166.19,151.11,166.61,150.61,167.2,150.98z"/>
<path class="st71" d="M42.33,157.46c0.06,0.61-0.3,0.72-0.81,0.72c-0.67,0-0.59,0.26-0.28,0.72c0.39,0.58,1.38,1.12,0.22,1.97
	c-0.22,0.16,0.06,0.88,0.37,1.16c0.86,0.77,0.43,0.91-0.39,0.94c-0.31,0.01-0.65,0.15-0.35,0.49c0.72,0.82,1.2,1.61,0.28,2.59
	c-1.78,0-3.57,0-5.53,0c1.59-3.33,3.16-6.59,4.72-9.85C41.24,156.51,41.83,156.92,42.33,157.46z"/>
<path class="st72" d="M86.65,84.82c0.99,1.04,0.33,2.33,0.44,3.48c0.21,2.1,0.06,4.24,0.06,6.36c-0.05,0.05-0.1,0.1-0.16,0.15
	c-0.62,0.29-1.28,0.21-1.93,0.2c-0.82-0.01-1.64,0.12-2.45,0.01c-0.42-0.06-1,0.04-1.01-0.67C82.82,90.93,84.61,87.81,86.65,84.82z"
	/>
<path class="st70" d="M81.6,94.35c1.16,0.65,2.42,0.16,3.63,0.31c-0.36,1.88-0.36,3.76-0.28,5.67c0.05,1.3,0.18,2.63-0.19,3.92
	c-0.8-0.64-1.6-1.28-2.4-1.92c-0.72-0.95-1.78-1.54-2.6-2.39C80.18,98.01,80.76,96.14,81.6,94.35z"/>
<path class="st73" d="M163.37,152.89c-0.09,0.95,0.62,1.87,0.07,2.85c-0.15,0.27,0.07,0.52,0.3,0.7c0.16,0.12,0.34,0.28,0.13,0.47
	c-0.88,0.83-0.37,1.76-0.2,2.66c0.03,0.15,0.11,0.35,0.05,0.43c-0.74,0.93-0.02,1.22,0.65,1.54c-1.24,0.63-2.54,1.07-3.88,1.39
	c-0.5-0.07-0.84-0.34-0.78-0.86c0.1-0.8-0.15-1.61-0.02-2.37c0.25-1.46,0.07-2.89-0.03-4.33c-0.03-0.51,0.18-0.83,0.47-1.16
	c0.51-0.49,1.18-0.71,1.77-1.05C162.38,153.01,162.79,152.53,163.37,152.89z"/>
<path class="st74" d="M89.31,64.7c1.25,3.29,2.49,6.59,3.74,9.88c0.15,0.4,0.19,0.86,0.58,1.14c-0.04,0.36,0.09,0.67,0.24,0.98
	c-1.76,0.13-3.52,0.12-5.28,0.01c0.45-0.56,0.56-1.05,0.4-1.88c-0.22-1.15-0.24-2.41,0.1-3.65c0.2-0.71-0.1-1.57-0.21-2.36
	c-0.17-1.28,0.47-2.55,0.08-3.84C88.95,64.94,89.19,64.8,89.31,64.7z"/>
<path class="st75" d="M159.45,133.44c0.3,0.17,0.56,0.48,0.47,0.76c-0.49,1.66-0.05,3.3-0.02,4.95c0.01,0.7-0.29,1.37-0.6,2
	c-0.77,0.13-1.09-0.44-1.44-0.95c-1.52-1.1-3.18-2.01-4.54-3.32C155.47,135.93,157.48,134.73,159.45,133.44z"/>
<path class="st76" d="M172.24,150.27c1.6,1.09,3.21,2.18,4.82,3.27c0.33,0.22,0.68,0.4,1.02,0.6c-1.91,1.45-3.91,2.75-6.06,3.8
	c-0.37-1.31-0.26-2.63-0.1-3.95c0.07-0.59,0-1.23-0.13-1.72C171.57,151.42,171.97,150.9,172.24,150.27z"/>
<path class="st77" d="M152.35,158.17c0.48-0.16,0.96-0.33,1.43-0.49c0.55,0.21,0.59,0.71,0.67,1.17c0.15,0.86,0.26,1.75,0.12,2.61
	c-0.15,1.01-0.05,1.98,0.19,2.94c-1.41,0.42-2.85,0.7-4.33,0.74c-0.76-1.93-0.45-3.86-0.01-5.79
	C151.06,158.97,151.7,158.57,152.35,158.17z"/>
<path class="st78" d="M160.25,154.34c-0.64,1-0.26,2.16-0.22,3.17c0.06,1.42-0.07,2.85-0.04,4.27c0.02,0.58,0.2,0.83,0.49,1.16
	c-1.08,0.45-2.2,0.76-3.35,0.95c-0.2-0.21-0.33-0.46-0.32-0.75c0.06-2.38-0.19-4.76,0.08-7.13c0.32-0.16,0.64-0.33,0.96-0.49
	C158.48,154.78,159.23,154.28,160.25,154.34z"/>
<path class="st79" d="M62.97,70.93c2.51,1.74,5.02,3.48,7.54,5.21c0.23,0.16,0.48,0.28,0.6,0.55c-2.51,0.02-5.02,0.03-7.52,0.08
	c-0.54,0.01-0.68-0.2-0.67-0.7C62.95,74.36,62.95,72.64,62.97,70.93z"/>
<path class="st80" d="M156.9,156.02c0.23,0.42,0.3,0.84,0.28,1.34c-0.07,2.18-0.04,4.35-0.04,6.53c-0.77,0.27-1.55,0.51-2.38,0.52
	c-0.79-0.56-0.73-1.37-0.61-2.18c0.22-1.55,0.17-3.07-0.37-4.55C154.74,156.98,155.86,156.58,156.9,156.02z"/>
<path class="st81" d="M150.42,159.37c0.18,0.09,0.44,0.25,0.33,0.42c-0.79,1.19-0.18,2.55-0.47,3.8c-0.12,0.51,0.62,0.99,0.16,1.57
	c-1.58,0.35-3.18,0.51-4.8,0.45c0.21-1.36-0.06-2.77,0.48-4.08c0-0.08,0-0.15,0-0.23C147.55,160.65,148.98,160.01,150.42,159.37z"/>
<path class="st82" d="M146.11,161.52c-0.03,1.38,0.3,2.8-0.48,4.08c-3.15,0.34-6.29,0.33-9.44,0.03c2,0.11,3.52-1.01,5.13-1.95
	C142.92,162.96,144.51,162.24,146.11,161.52z"/>
<path class="st83" d="M57.19,94.66c0.33-0.01,0.67-0.01,1-0.02c0.32,1.87,0.87,3.67,1.95,5.26c-1.31,0.01-2.62-0.01-3.93,0.04
	c-0.73,0.03-0.99-0.25-0.96-0.97c0.04-0.95,0.06-1.91,0-2.85c-0.06-0.89,0.18-1.38,1.17-1.23C56.7,94.93,56.99,94.92,57.19,94.66z"
	/>
<path class="st84" d="M125.32,160.11c1.82,1.66,3.63,3.32,5.45,4.98c-1.7-0.12-3.34-0.56-4.99-0.9c-0.51-0.11-0.51-0.39-0.5-0.76
	C125.29,162.32,125.31,161.21,125.32,160.11z"/>
<path class="st85" d="M94.1,79.63c0,1.1,0,2.19,0,3.49c-1.06-0.7-1.97-1.29-2.87-1.88c-0.37-0.34-0.74-0.68-1.28-0.76
	c0.26-0.74,0.78-1,1.55-0.94C92.36,79.61,93.23,79.6,94.1,79.63z"/>
<path class="st86" d="M96.55,171.84c1.1,0.88,2.2,1.75,3.3,2.63c-1.1,0.2-2.2,0.19-3.3,0C96.55,173.59,96.55,172.72,96.55,171.84z"
	/>
<path class="st87" d="M96.55,174.47c1.1,0,2.2,0,3.3,0c1.84,0,3.68,0,5.52,0c0.28-0.26,0.61-0.36,0.98-0.38
	c1.51-0.05,3.01-0.05,4.52,0c0.36,0.01,0.71,0.08,0.97,0.38c0,0.07,0,0.13,0,0.2c-4.95,0.01-9.89,0.03-14.84,0.04
	C96.82,174.71,96.59,174.76,96.55,174.47z"/>
<path class="st88" d="M155.43,57.27c-0.71-1.04-1.42-2.07-2.13-3.11c2.17-0.15,2.18-0.15,2.17,1.93
	C155.47,56.48,155.44,56.88,155.43,57.27z"/>
<path class="st89" d="M66.1,79.77c-0.02-0.06-0.04-0.12-0.06-0.18c1.69,0,3.39,0,5.08,0c0.01,0.05,0.02,0.1,0.03,0.15
	c-0.51,0.08-1.02,0.17-1.53,0.25c-0.43-0.28-0.99,0.19-1.4-0.23C67.51,79.77,66.8,79.77,66.1,79.77z"/>
<path class="st90" d="M68.22,79.78c0.47,0.03,1-0.23,1.4,0.23c-0.47,0.08-0.94,0.17-1.41,0.25C68.22,80.09,68.22,79.93,68.22,79.78z
	"/>
<path class="st58" d="M143.37,85.34c0.44,0.02,0.9-0.16,1.29,0.17C144.22,85.54,143.78,85.55,143.37,85.34z"/>
<path class="st91" d="M192.13,138.28c-2.32,1.35-4.71,2.56-7.19,3.6c-0.6-0.28-0.75-0.83-0.73-1.4c0.06-1.71,0.03-3.42-0.01-5.13
	c-0.07-2.82,0.02-5.64,0.04-8.46c0.03-3.82-0.17-7.64,0.1-11.45c0.03-0.43-0.07-1.01,0.61-1.12c0.34,0.29,0.49,0.79,0.95,0.96
	c1.12,2.14,2.7,3.97,4,5.99c0.32,0.5,0.69,0.96,1.04,1.43c0.4,0.64,0.8,1.28,1.2,1.92c-0.63,1.94-0.32,3.96-0.33,5.92
	c-0.01,2.05-0.03,4.1-0.06,6.15C191.73,137.27,192.25,137.69,192.13,138.28z"/>
<path class="st92" d="M179.67,144.51c-0.32,0.24-0.64,0.48-0.96,0.72c-2.41,0.93-4.62,2.27-6.95,3.35c0.32-1.16,0.76-2.24,0.24-3.54
	c-0.13-0.33-0.26-1.32,0.08-1.96c0.37-0.71-0.36-1.57,0.32-2.23c-0.61-0.43-0.23-0.95-0.26-1.49c-0.06-1.08,0-2.09,0.21-3.15
	c0.09-0.47-0.25-0.99-0.26-1.6c-0.02-1.12-0.06-2.29-0.07-3.41c-0.01-1.37-0.15-2.81,0.31-4.16c0.22-0.63-0.97-1.08-0.13-1.71
	c-0.67-0.73-0.1-1.6-0.02-2.27c0.17-1.37-0.33-2.69-0.07-4.09c0.12-0.62,0.81-1.71-0.2-2.4c0.52-0.63-0.15-1.37,0.17-2
	c0.36-0.72-0.35-1.55,0.27-2.28c0.05-0.06-0.26-0.76-0.25-1.33c0.03-1.14,0.49-2.45,0.18-3.33c-0.49-1.38-0.09-2.65-0.15-3.93
	c-0.05-0.99-0.38-2.04-0.17-2.94c0.35-1.48-0.55-3.08,0.52-4.44c0.75,0.47,0.85,1.52,1.67,1.93c0.51,1.25,1.4,2.26,2.16,3.35
	c1.03,1.44,1.84,3.05,3.11,4.32c0.16,0.4,0.32,0.79,0.49,1.19c-0.05,2.3,0.03,4.61,0.03,6.91c0.01,2.46,0.02,4.93,0.01,7.4
	c-0.01,3.54-0.03,7.07-0.08,10.61c-0.04,2.89,0.01,5.81,0.1,8.71C180.02,142,180.03,143.28,179.67,144.51z"/>
<path class="st93" d="M167.2,150.98c-0.48,0.16-0.95,0.32-1.43,0.48c-0.38,0.09-0.4-0.21-0.37-0.42c0.21-1.51,0.24-3.01-0.01-4.51
	c-0.06-0.34,0.1-0.62,0.39-0.82c0,0,0-0.01,0-0.01c1.6,1.12,3.2,2.25,4.8,3.37C169.44,149.71,168.32,150.34,167.2,150.98z"/>
<path class="st52" d="M121.66,84.6c0,8.94,0,17.89,0,26.83c-0.54,0.36-0.92-0.08-1.27-0.33c-1.35-0.98-2.8-1.83-4.13-2.84
	c-0.39-0.53-1.37-0.54-1.29-1.48c0.32-0.28,0.61-0.5,0.51-1.07c-0.23-1.34-0.63-2.66,0.07-4.07c0.28-0.56-0.24-1.44-0.33-2.18
	c-0.1-0.79-0.23-1.59,0.27-2.3c0.22-0.31,0.1-0.58,0.03-0.89c-0.21-1-0.5-2-0.33-3.05c0.46-1.1,1.41-1.85,2.01-2.85
	c0.2-0.33,0.42-0.66,0.63-0.99C119.11,87.79,120.38,86.2,121.66,84.6z"/>
<path class="st94" d="M115.19,93.22c0.31,0.81,0.35,1.67,0.52,2.5c0.15,0.74,0.26,1.26-0.15,2.05c-0.51,1,0.03,2.24,0.31,3.33
	c0.1,0.41,0.46,0.63-0.12,0.95c-0.26,0.14-0.33,0.53-0.31,0.86c0.06,1.24,0.06,2.5,0.78,3.64c-0.43,0.11-0.84,0.22-1.26,0.33
	c-0.92,0.17-1.39-0.62-2.06-0.99c-1.42-0.98-2.83-1.95-4.25-2.93c-0.24-0.24-0.57-0.45-0.4-0.87c0.08-0.08,0.16-0.16,0.24-0.24
	c0.97-1.49,2.33-2.7,3.12-4.31c1.17-1.02,1.88-2.4,2.85-3.58C114.68,93.68,114.86,93.38,115.19,93.22z"/>
<path class="st95" d="M99.38,113.6c-0.23-0.72-1.12-1.39-0.07-2.19c0.19-0.14-0.09-0.52-0.21-0.76c-0.21-0.42-0.3-0.82,0.01-1.23
	c0.07-0.09,0.2-0.26,0.18-0.29c-0.82-1.07,0.12-2.26-0.23-3.35c-0.09-0.27-0.27-0.58-0.11-0.8c0.52-0.7,0.43-1.31-0.12-1.92
	c-0.07-0.08-0.14-0.3-0.13-0.31c1.36-0.85-0.41-2.25,0.57-3.16c0.05-0.05,0.09-0.19,0.06-0.22c-0.89-1.03-0.11-2.04,0.05-3.05
	c1.11,0.41,1.93,1.26,2.87,1.93c0.4,1.41-0.13,2.82-0.01,4.23c0.21,2.51-0.07,5.03,0.11,7.54c-0.47,1.39-1.48,2.41-2.43,3.47
	C99.8,113.64,99.59,113.69,99.38,113.6z"/>
<path class="st96" d="M102.24,110c-0.13-0.07-0.39-0.2-0.38-0.2c0.65-1.33-0.21-2.69,0.13-4.09c0.29-1.16,0.02-2.47-0.05-3.71
	c-0.07-1.27,0.11-2.5,0.31-3.74c0.56,0.32,1.12,0.64,1.68,0.96c1.24,1.12,2.71,1.93,4.07,2.87c0.35,0.52-0.03,0.9-0.29,1.28
	c-0.51,0.76-1.14,1.42-1.66,2.17c-1.08,1.32-2.01,2.75-3.11,4.05C102.74,109.78,102.54,109.97,102.24,110z"/>
<path class="st97" d="M64.38,125.33c0.09,0.26,0.13,0.55,0.28,0.78c0.42,0.63,0.76,1.12-0.45,1.17c-0.8,0.03-0.41,0.45-0.12,0.75
	c0.56,0.55,1.41,1.02,0.12,1.77c-0.5,0.29,0.14,0.56,0.27,0.84c0.29,0.61,1.33,1.33-0.42,1.5c-0.68,0.07-0.06,0.55,0.16,0.79
	c0.44,0.48,1.14,0.91,0.16,1.53c-2-1.52-3.99-3.04-5.99-4.55c-0.68-0.86-1.77-1.25-2.4-2.16c0.75-0.47-0.2-1.44,0.57-1.9
	c-0.95-1.22-0.13-2.59-0.29-3.88c-0.08-0.66,0.42-1.4-0.39-1.91c0.27-0.33,0.57-0.17,0.82-0.21c2.33,1.63,4.65,3.27,6.99,4.89
	c0.12,0.09,0.3,0.09,0.45,0.14C64.22,125.02,64.3,125.18,64.38,125.33z"/>
<path class="st48" d="M105.85,105.44c0.36-0.86,1.09-1.44,1.61-2.19c0.25-0.36,0.51-0.7,0.55-1.16c0.08,0,0.16,0,0.24,0
	c0.16,0.24,0.32,0.48,0.48,0.71c0.33,0.78,0,1.58,0.05,2.35c0.17,2.58,0.03,5.17,0.03,7.75c0,2.22,0.08,4.44,0.07,6.66
	c-0.02,2.5-0.08,5.01-0.06,7.51c0.02,2.1,0.14,4.2-0.03,6.3c-0.09,1.07-0.05,2.15,0.09,3.22c0.1,0.75-0.03,1.42-0.44,2.05
	c-0.41,0.39-0.71,0.04-1-0.18c-0.37-0.28-0.67-0.65-1.06-0.9c-0.34-0.26-0.66-0.55-0.72-1.01c0.15-2.08,0.36-4.16,0.13-6.25
	c-0.13-1.14,0.15-2.28,0.1-3.44c-0.12-3.28,0.06-6.57,0.01-9.86c-0.05-3.16-0.06-6.31,0.01-9.46
	C105.91,106.84,105.45,106.15,105.85,105.44z"/>
<path class="st98" d="M50.72,68.78c1.58-0.86,2.8-2.19,4.27-3.2c0.33-0.22,0.66-0.43,1-0.64c0.39,1.78,0,3.57,0.13,5.36
	c0.15,1.99,0.16,4.02,0.1,6c-0.09,3.03,0.22,6.07-0.03,9.07c-0.17,2.02,0.21,4.02-0.15,6.03c-0.19,1.04,0.11,2.17,0.19,3.26
	c-2.4,0-4.79,0-7.19,0c-0.23-0.22-0.42-0.48-0.57-0.77c-0.54-1.03-0.33-1.43,0.85-1.56c0.98-0.11,1.07-0.25,0.57-1.08
	c-0.45-0.75-1-1.45-1.43-2.21c-0.54-0.95-0.3-1.38,0.8-1.51c1.09-0.13,1.15-0.26,0.54-1.23c-0.38-0.61-0.86-1.16-1.22-1.78
	c-0.6-1.01-0.39-1.44,0.75-1.66c1.12-0.21,1.12-0.21,0.48-1.14c-0.48-0.69-0.98-1.37-1.38-2.1c-0.48-0.88-0.23-1.32,0.78-1.45
	c1.13-0.14,1.2-0.25,0.61-1.19c-0.42-0.68-0.9-1.32-1.31-2.01c-0.6-1.02-0.38-1.47,0.76-1.6c1.04-0.12,1.11-0.27,0.58-1.15
	c-0.36-0.59-0.86-1.04-1.3-1.56C49.23,69.99,50.15,69.58,50.72,68.78z"/>
<path class="st99" d="M48.56,70.69c1.23,0.32,1.67,1.4,2.06,2.38c0.23,0.58-0.5,0.73-0.96,0.69c-0.43-0.03-0.93-0.3-1.18,0.18
	c-0.23,0.45,0.25,0.78,0.48,1.14c0.46,0.7,0.94,1.38,1.38,2.09c0.2,0.32,0.56,0.67,0.22,1.07c-0.27,0.32-0.68,0.44-1.09,0.29
	c-0.38-0.14-0.75-0.15-0.97,0.18c-0.25,0.37,0.11,0.66,0.3,0.94c0.56,0.82,1.13,1.63,1.7,2.44c0.16,0.23,0.39,0.47,0.29,0.75
	c-0.13,0.37-0.52,0.3-0.83,0.31c-0.16,0-0.32-0.01-0.48,0c-1.05,0.07-1.21,0.36-0.65,1.23c0.47,0.73,1.03,1.41,1.5,2.14
	c0.2,0.31,0.56,0.67,0.22,1.07c-0.27,0.31-0.68,0.44-1.09,0.29c-0.38-0.15-0.75-0.15-0.97,0.18c-0.24,0.37,0.11,0.66,0.3,0.94
	c0.52,0.8,1.08,1.58,1.59,2.38c0.18,0.29,0.48,0.61,0.2,0.98c-0.23,0.29-0.59,0.43-0.97,0.35c-0.39-0.09-0.82-0.27-1.1,0.12
	c-0.3,0.42,0.12,0.73,0.33,1.04c0.17,0.25,0.2,0.51,0.2,0.79c-1.36,0-2.72,0-4.07,0c-0.48,0.41-0.96,0.4-1.44,0
	c-0.35-1.76,0.06-3.55-0.09-5.29c-0.25-2.88,0.22-5.76-0.11-8.64c-0.19-1.67,0.23-3.37-0.06-5.05c-0.04-0.23-0.15-0.45-0.23-0.67
	C44.89,73.57,46.73,72.13,48.56,70.69z"/>
<path class="st100" d="M56.23,119.35c-1.93-1.14-3.69-2.54-5.51-3.84c-0.04-2,0.62-3.97,0.12-5.99c-0.22-0.89,0.15-1.81,0.15-2.72
	c0-1.77-0.27-3.53-0.01-5.3c0.09-0.62-0.77-0.74-1.03-1.23c-0.05-0.12-0.04-0.23,0.04-0.33c1.95-0.07,3.88,0.06,5.82,0.23
	c0.65,0.06,0.9,0.31,0.86,0.98c-0.14,2.36,0.06,4.74-0.07,7.08c-0.1,1.97,0.19,3.93-0.11,5.92c-0.15,0.97,0.14,2.18,0.19,3.29
	C56.72,118.13,56.68,118.78,56.23,119.35z"/>
<path class="st54" d="M50,99.93c0,0.08,0,0.16,0,0.24c-0.13,0.15-0.3,0.28-0.5,0.29c-1.53,0.03-3.07,0.06-4.53-0.53
	c-0.88,0-1.75,0.01-2.63-0.01c-0.8-0.02-1.18-0.51-0.79-1.16c0.45-0.74,0.14-1.19-0.29-1.69c-0.34-0.4-0.46-0.66,0.22-0.77
	c0.4-0.06,0.74-0.31,0.4-0.74c-0.55-0.68,0.29-0.62,0.44-0.91c0.4,0,0.8,0,1.2,0c0.48,0,0.96,0,1.44,0c1.26,0.5,2.56,0.15,3.85,0.23
	c1.05,0.06,2.02,1.15,1.89,2.19c-0.03,0.27-0.2,0.4-0.4,0.54C49.08,98.41,49.07,98.52,50,99.93z"/>
<path class="st101" d="M96.89,85.06c0.3,0.79,0.61,1.58,0.91,2.37c0.12,0.32,0.2,0.64-0.27,0.73c-0.45,0.08-0.79-0.03-0.79-0.59
	c0-0.82,0-1.64,0-2.46C96.79,85.09,96.84,85.08,96.89,85.06z"/>
<path class="st102" d="M179.67,144.51c-0.02-3.14,0.1-6.29-0.13-9.42c-0.15-2.05-0.08-4.12,0.01-6.13c0.09-2-0.2-4,0.07-6
	c0.15-1.08,0.01-2.2-0.1-3.31c-0.11-1.2,0.27-2.44,0.1-3.65c-0.29-2.04,0.24-4.07-0.11-6.13c-0.15-0.85,0-1.88,0.4-2.76
	c1.37,1.47,2.3,3.26,3.59,4.8c0.48,0.8,0.96,1.6,1.44,2.39c-0.34,0.97-0.39,1.96-0.34,2.98c0.05,1.13,0.02,2.26,0.04,3.39
	c0.02,1.35-0.11,2.7,0.01,4.06c0.1,1.11-0.22,2.27-0.09,3.37c0.22,1.82-0.32,3.62-0.04,5.42c0.21,1.32-0.1,2.65,0.04,3.94
	c0.16,1.46-0.4,2.99,0.37,4.39c-0.48,0.32-0.96,0.64-1.44,0.96C182.22,143.39,180.95,143.95,179.67,144.51z"/>
<path class="st103" d="M105.85,136.6c0.16,0.32,0.4,0.56,0.72,0.72c0.08,2.05,0.01,4.1,0.04,6.15c0.06,3.72,0.02,7.45,0.05,11.17
	c0.02,2.61,0.09,5.24-0.09,7.85c-0.04,0.54,0.05,1.22-0.72,1.43c-3.08-2.1-6.22-4.11-9.11-6.47c0-9.59,0-19.18,0-28.76
	c0.48-0.17,0.73,0.22,1.02,0.45c1.94,1.53,3.65,3.33,5.57,4.88C104.06,134.99,105.3,135.46,105.85,136.6z"/>
<path class="st104" d="M105.85,163.92c0.61-0.97,0.39-2.05,0.45-3.09c0.11-1.98-0.06-3.96,0.06-5.95c0.07-1.14-0.05-2.39-0.03-3.58
	c0.03-1.94-0.05-3.88,0.02-5.83c0.04-1.18-0.04-2.47-0.04-3.7c0-1.48-0.4-3.01,0.26-4.46c0.56,0.48,1.12,0.96,1.68,1.44
	c0.5-0.04,0.81,0.29,1.12,0.6c1.06,1.08,2.3,1.96,3.35,3.04c0.98,0.76,1.91,1.58,2.63,2.61c0.01,2.07,0.03,4.15-0.03,6.21
	c-0.07,2.3-0.01,4.59-0.01,6.89c0,2.53-0.17,5.07,0.05,7.6c0.1,1.13-0.18,2.29-0.09,3.44c0.03,0.38-0.2,0.77-0.55,1.02
	c-0.64-0.4-1.28-0.8-1.92-1.2c-1.75-0.61-3.07-1.9-4.57-2.91c-0.83-0.56-1.85-0.93-2.38-1.89
	C105.85,164.08,105.85,164,105.85,163.92z"/>
<path class="st105" d="M105.85,164.16c2.41,1.46,4.69,3.11,6.95,4.8c-0.6,0.3-0.48,0.72-0.48,1.34c0,1.39,0.48,2.88-0.47,4.17
	c-2.16,0-4.31,0-6.47,0c0.48-3.01,0.07-6.05,0.24-9.07C105.63,164.98,105.46,164.51,105.85,164.16z"/>
<path class="st78" d="M90.75,94.66c0.08,0,0.16,0,0.24,0c0.86,0.73,0.48,1.72,0.45,2.58c-0.1,2.84-0.07,5.68,0.01,8.53
	c0.04,1.41-0.14,2.82-0.22,4.23c-0.96-0.8-1.92-1.6-2.88-2.39c-0.19-0.1-0.23-0.28-0.24-0.48c-0.55-0.43-0.64-1.15-0.47-1.63
	c0.51-1.43,0.18-2.8,0.03-4.21c-0.11-1.04,0.31-2.06,0.23-3.14c-0.07-0.89-0.53-1.76-0.19-2.7c0.12-0.34-0.68-0.29-0.55-0.78
	c0,0,0,0,0,0C88.35,94.66,89.55,94.66,90.75,94.66z"/>
<path class="st73" d="M87.15,94.66c0.18,0.52,1.53-0.04,1.03,0.79c-0.38,0.63-0.16,1.1-0.12,1.56c0.12,1.27,0.55,2.53-0.24,3.73
	c-0.03,0.05,0,0.15,0.02,0.22c0.41,1.54,0.78,3.05,0.02,4.64c-0.11,0.22,0.05,1.02,0.24,1.53c-1.35-0.69-2.22-1.93-3.35-2.88
	c-0.24-1.27,0.11-2.61-0.1-3.81c-0.29-1.72,0.18-3.35,0.04-5.01c-0.05-0.56,0.39-0.49,0.53-0.76
	C85.87,94.66,86.51,94.66,87.15,94.66z"/>
<path class="st106" d="M160.25,154.34c-0.8,0.4-1.6,0.79-2.4,1.19c0-5.11,0-10.22,0-15.33c0.48,0.32,0.96,0.63,1.44,0.95
	c0.7,0.76,1.82,1,2.4,1.91c0.32,0.29,0.39,0.66,0.36,1.08c-0.27,3.07-0.03,6.16-0.12,9.23C161.46,153.86,160.8,154,160.25,154.34z"
	/>
<path class="st107" d="M44.97,99.93c1.69-0.17,3.35,0.33,5.03,0.24c1.58,0.8,1.8,1.36,1.18,3.56c-0.14,0.51-0.07,0.84,0.11,1.32
	c0.45,1.19-0.18,2.39-0.14,3.6c0.01,0.23-0.2,0.52-0.11,0.67c0.84,1.45,0.13,2.9,0,4.34c-0.03,0.3-0.02,0.53,0.15,0.77
	c0.42,0.61,0.22,0.95-0.48,1.08c-2.04-1.38-4.13-2.69-5.99-4.31c0.47-0.61,0.75-1.24,0.15-1.93c-0.05-0.06-0.11-0.19-0.09-0.21
	c0.89-0.81,0.13-1.77,0.25-2.63c0.1-0.73,0.31-1.39-0.2-2.04c-0.07-0.09-0.07-0.33,0-0.44C45.67,102.63,44.93,101.27,44.97,99.93z"
	/>
<path class="st108" d="M138.69,62.06c1.52-2,3.04-3.99,4.55-5.99c1.29,0.39,0.29,1.35,0.39,1.98c0.33,2.1,0.13,4.27,0.1,6.39
	c-0.03,2.81,0.13,5.63-0.11,8.44c-0.06,0.74,0.03,1.53,0.1,2.29c0.05,0.55-0.09,0.98-0.24,1.45c-1.44,0-2.88,0-4.32,0
	c-0.62-1.25-0.17-2.58-0.21-3.86c-0.1-3.13-0.03-6.27-0.05-9.41C138.89,62.91,138.9,62.47,138.69,62.06z"/>
<path class="st109" d="M138.69,62.06c1.32,0.53,0.59,1.78,0.55,2.46c-0.09,1.29,0.05,2.57,0.01,3.84c-0.09,2.74,0.07,5.5-0.08,8.25
	c-1.68,0-3.36,0-5.03,0c-0.5-0.91-0.28-1.92-0.34-2.89c-0.11-1.65,0.21-3.31-0.14-4.95c1.2-1.6,2.39-3.2,3.59-4.79
	C137.72,63.34,138.2,62.7,138.69,62.06z"/>
<path class="st110" d="M133.65,68.77c0.94,0.37,0.63,1.36,0.57,1.84c-0.26,2.01,0.15,4.01-0.09,6c-2.06,0-4.13,0-6.41,0
	c1.06-1.48,2.06-2.86,3.05-4.25C131.73,71.17,132.69,69.97,133.65,68.77z"/>
<path class="st111" d="M161.93,153.38c-0.82-1.07-0.17-2.26-0.27-3.38c-0.2-2.31,0.07-4.62,0.03-6.93c1.52,0.63,2.7,1.79,4.07,2.65
	c-0.48,0.62,0.09,1.19,0.12,1.78c0.07,1.34-0.19,2.65-0.12,3.97c-0.8,0.48-1.6,0.95-2.4,1.43
	C162.89,153.06,162.41,153.22,161.93,153.38z"/>
<path class="st18" d="M103.21,134.21c-2.33-1.63-4.17-3.84-6.47-5.51c0-3.29,0.03-6.58-0.02-9.87c-0.02-1.06,0.28-1.88,0.93-2.71
	c0.63-0.79,1.39-1.51,1.73-2.51c1.21-1,1.96-2.37,2.87-3.6c0.16-0.16,0.32-0.32,0.48-0.48c0.82-0.26,0.89,0.37,0.9,0.86
	c0.01,1.71,0.14,3.41,0.08,5.13c-0.06,1.7-0.1,3.41,0.05,5.12c0.04,0.48,0.1,0.96,0.05,1.43c-0.31,2.66,0.1,5.33-0.16,8
	c-0.1,1.1,0.28,2.22,0.03,3.33C103.61,133.71,103.76,134.16,103.21,134.21z"/>
<path class="st111" d="M116.39,108.08c1.38,0.92,2.74,1.86,4.13,2.76c0.36,0.23,0.66,0.6,1.14,0.6c0,13.1-0.01,26.2-0.01,39.3
	c-0.31,0.13-0.55-0.04-0.75-0.24c-1.41-1.41-2.99-2.63-4.38-4.05c-0.26-0.27-0.42-0.58-0.46-0.95c-0.1-0.64-0.08-1.27-0.08-1.91
	c0.06-7.57-0.03-15.14,0.06-22.7c0.04-3.66-0.02-7.33-0.05-10.99C115.99,109.27,115.89,108.6,116.39,108.08z"/>
<path class="st112" d="M116.39,145.95c1.75,1.59,3.51,3.19,5.26,4.78c0,7.56,0.01,15.13,0.01,22.69c0,1.03-0.42,1.38-1.16,0.88
	c-1.96-1.33-3.86-2.76-5.78-4.14c0.31-1.1-0.04-2.27,0.15-3.3c0.3-1.64-0.24-3.21-0.01-4.76c0.25-1.66-0.23-3.29,0.01-4.86
	c0.24-1.63-0.3-3.23,0-4.75c0.37-1.85-0.24-3.67,0.23-5.51c0.14-0.54-0.08-1.32,0.11-1.99
	C115.95,144.86,116.07,145.53,116.39,145.95z"/>
<path class="st40" d="M116.39,145.95c-0.4-0.32-0.8-0.64-1.2-0.96c-0.88-0.8-1.76-1.6-2.64-2.4c-0.49-1.14-0.33-2.35-0.32-3.51
	c0.04-2.89,0.02-5.79,0.01-8.68c-0.01-1.9-0.1-3.81,0.01-5.7c0.15-2.75,0.1-5.49-0.01-8.23c-0.06-1.35,0.23-2.69,0.06-4.04
	c-0.26-1.97,0.24-3.96-0.1-5.94c-0.1-0.61,0.21-0.9,0.83-0.8c0.64,0.4,1.28,0.8,1.92,1.2c0.39,0.5,1.11,0.61,1.44,1.2
	C116.39,120.7,116.39,133.33,116.39,145.95z"/>
<path class="st24" d="M113.04,105.69c-0.3,0.2-0.69,0.21-0.57,0.84c0.27,1.39,0.3,2.79,0.03,4.21c-0.14,0.72,0.13,1.5,0.11,2.28
	c-0.07,2.44-0.19,4.89,0.03,7.31c0.23,2.46-0.02,4.9-0.02,7.34c0,2.28,0.24,4.6-0.12,6.93c-0.18,1.16,0.13,2.51,0.12,3.78
	c-0.01,1.4-0.04,2.81-0.07,4.21c-1.44-1.28-2.88-2.56-4.31-3.83c0.61-1.65-0.11-3.36,0.18-4.98c0.36-1.97-0.33-3.92,0.13-5.9
	c0.27-1.13-0.24-2.43-0.11-3.61c0.19-1.8-0.12-3.6,0.14-5.4c0.18-1.23-0.34-2.48-0.13-3.75c0.35-2.06-0.27-4.14,0.12-6.24
	c0.2-1.09-0.23-2.33-0.14-3.51c0.07-0.86,0.2-1.71,0.3-2.56C110.29,103.58,111.62,104.69,113.04,105.69z"/>
<path class="st38" d="M103.21,134.21c0.07-1.15,0.47-2.28,0.04-3.44c-0.26-0.7,0.08-1.41,0.12-2.1c0.13-1.95-0.11-3.89,0.01-5.85
	c0.12-2.06,0.21-4.17-0.16-6.23c-0.13-0.73,0.04-1.46,0.16-2.1c0.27-1.4-0.44-2.74-0.03-4.12c0.12-0.41-0.12-0.77-0.61-0.85
	c1-1.39,1.94-2.82,3.12-4.07c0.43,1.82,0.38,3.61,0.21,5.48c-0.1,1.08,0.2,2.34,0.11,3.51c-0.16,2,0.2,3.99,0.01,6
	c-0.1,1.12,0.13,2.32,0.03,3.48c-0.14,1.7,0.29,3.41,0.03,5.06c-0.24,1.53,0.35,3.03-0.05,4.5c-0.29,1.04,0.44,2.16-0.34,3.12
	C104.95,135.82,103.88,135.23,103.21,134.21z"/>
</svg>
